<svg width="232" height="246" viewBox="0 0 232 246" fill="none" xmlns="http://www.w3.org/2000/svg">
<g filter="url(#filter0_b_944_4673)">
<rect width="232" height="246" rx="20" fill="url(#paint0_linear_944_4673)" fill-opacity="0.1"/>
<rect x="0.5" y="0.5" width="231" height="245" rx="19.5" stroke="url(#paint1_linear_944_4673)"/>
<rect x="58" y="24" width="116" height="116" rx="58" stroke="url(#paint2_linear_944_4673)" stroke-width="4" stroke-linecap="round" stroke-linejoin="round" stroke-dasharray="8 8"/>
<path d="M96.7109 60.5039V89H91.0859V66.9883L84.3281 69.1367V64.7031L96.1055 60.5039H96.7109ZM111.262 76.0508L106.77 74.9766L108.391 60.5625H124.367V65.1133H113.02L112.316 71.4219C112.694 71.2005 113.267 70.9661 114.035 70.7188C114.803 70.4583 115.663 70.3281 116.613 70.3281C117.993 70.3281 119.217 70.543 120.285 70.9727C121.353 71.4023 122.258 72.0273 123 72.8477C123.755 73.668 124.328 74.6706 124.719 75.8555C125.109 77.0404 125.305 78.3815 125.305 79.8789C125.305 81.1419 125.109 82.3464 124.719 83.4922C124.328 84.625 123.736 85.6406 122.941 86.5391C122.147 87.4245 121.151 88.1211 119.953 88.6289C118.755 89.1367 117.336 89.3906 115.695 89.3906C114.471 89.3906 113.286 89.2083 112.141 88.8438C111.008 88.4792 109.986 87.9388 109.074 87.2227C108.176 86.5065 107.453 85.6406 106.906 84.625C106.372 83.5964 106.092 82.4245 106.066 81.1094H111.652C111.73 81.9167 111.939 82.6133 112.277 83.1992C112.629 83.7721 113.091 84.2148 113.664 84.5273C114.237 84.8398 114.908 84.9961 115.676 84.9961C116.392 84.9961 117.004 84.8594 117.512 84.5859C118.02 84.3125 118.43 83.9349 118.742 83.4531C119.055 82.9583 119.283 82.3854 119.426 81.7344C119.582 81.0703 119.66 80.3542 119.66 79.5859C119.66 78.8177 119.569 78.1211 119.387 77.4961C119.204 76.8711 118.924 76.3307 118.547 75.875C118.169 75.4193 117.688 75.0677 117.102 74.8203C116.529 74.5729 115.858 74.4492 115.09 74.4492C114.048 74.4492 113.241 74.612 112.668 74.9375C112.108 75.263 111.639 75.6341 111.262 76.0508ZM148.859 78.375V82.7891H128.371L128.098 79.3711L139.953 60.5625H144.426L139.582 68.668L133.684 78.375H148.859ZM145.637 60.5625V89H140.012V60.5625H145.637Z" fill="white"/>
<path d="M102.745 110.765L104.728 103.047H105.767L105.65 105.036L103.531 113H102.451L102.745 110.765ZM101.262 103.047L102.868 110.703L103.012 113H101.863L99.5596 103.047H101.262ZM108.016 110.683L109.602 103.047H111.311L109.007 113H107.858L108.016 110.683ZM106.17 103.047L108.132 110.785L108.419 113H107.339L105.254 105.036L105.145 103.047H106.17ZM116.362 109.288H113.771V107.928H116.362C116.813 107.928 117.178 107.855 117.456 107.709C117.734 107.563 117.937 107.363 118.064 107.107C118.197 106.848 118.263 106.551 118.263 106.219C118.263 105.904 118.197 105.61 118.064 105.337C117.937 105.059 117.734 104.836 117.456 104.667C117.178 104.498 116.813 104.414 116.362 104.414H114.298V113H112.582V103.047H116.362C117.132 103.047 117.786 103.184 118.324 103.457C118.867 103.726 119.279 104.1 119.562 104.578C119.844 105.052 119.985 105.594 119.985 106.205C119.985 106.848 119.844 107.399 119.562 107.859C119.279 108.32 118.867 108.673 118.324 108.919C117.786 109.165 117.132 109.288 116.362 109.288ZM122.221 103.047H123.752L126.63 110.724L129.501 103.047H131.032L127.231 113H126.015L122.221 103.047ZM121.523 103.047H122.979L123.232 109.691V113H121.523V103.047ZM130.273 103.047H131.736V113H130.021V109.691L130.273 103.047Z" fill="#0084FF"/>
<path d="M27.5 168L204.5 168" stroke="#454545" stroke-width="8" stroke-linecap="round"/>
<path d="M27.5 168H130.5" stroke="url(#paint3_linear_944_4673)" stroke-width="8" stroke-linecap="round"/>
<rect x="24" y="183" width="54" height="23" rx="6" fill="#EB5757"/>
<path d="M38.6855 190.891V198H37.46L34.2715 192.907V198H33.0459V190.891H34.2715L37.4697 195.993V190.891H38.6855ZM42.3574 198.098C41.9668 198.098 41.6136 198.034 41.2979 197.907C40.9854 197.777 40.7184 197.596 40.4971 197.365C40.279 197.134 40.1113 196.862 39.9941 196.55C39.877 196.237 39.8184 195.9 39.8184 195.539V195.344C39.8184 194.93 39.8786 194.556 39.999 194.221C40.1195 193.885 40.2871 193.599 40.502 193.361C40.7168 193.12 40.9707 192.937 41.2637 192.81C41.5566 192.683 41.874 192.619 42.2158 192.619C42.5934 192.619 42.9238 192.683 43.207 192.81C43.4902 192.937 43.7246 193.116 43.9102 193.347C44.099 193.575 44.2389 193.846 44.3301 194.162C44.4245 194.478 44.4717 194.826 44.4717 195.207V195.71H40.3896V194.865H43.3096V194.772C43.3031 194.561 43.2607 194.362 43.1826 194.177C43.1077 193.991 42.9922 193.841 42.8359 193.728C42.6797 193.614 42.4714 193.557 42.2109 193.557C42.0156 193.557 41.8415 193.599 41.6885 193.684C41.5387 193.765 41.4134 193.884 41.3125 194.04C41.2116 194.196 41.1335 194.385 41.0781 194.606C41.026 194.825 41 195.07 41 195.344V195.539C41 195.77 41.0309 195.985 41.0928 196.184C41.1579 196.379 41.2523 196.55 41.376 196.696C41.4997 196.843 41.6494 196.958 41.8252 197.043C42.001 197.124 42.2012 197.165 42.4258 197.165C42.709 197.165 42.9613 197.108 43.1826 196.994C43.404 196.88 43.596 196.719 43.7588 196.511L44.3789 197.111C44.265 197.277 44.1169 197.437 43.9346 197.59C43.7523 197.74 43.5293 197.862 43.2656 197.956C43.0052 198.05 42.7025 198.098 42.3574 198.098ZM46.5713 193.723V198H45.3945V192.717H46.5176L46.5713 193.723ZM48.1875 192.683L48.1777 193.776C48.1061 193.763 48.028 193.754 47.9434 193.747C47.862 193.741 47.7806 193.737 47.6992 193.737C47.4974 193.737 47.32 193.767 47.167 193.825C47.014 193.881 46.8854 193.962 46.7812 194.069C46.6803 194.174 46.6022 194.3 46.5469 194.45C46.4915 194.6 46.459 194.768 46.4492 194.953L46.1807 194.973C46.1807 194.641 46.2132 194.333 46.2783 194.05C46.3434 193.767 46.4411 193.518 46.5713 193.303C46.7048 193.088 46.8708 192.92 47.0693 192.8C47.2712 192.679 47.5039 192.619 47.7676 192.619C47.8392 192.619 47.9157 192.626 47.9971 192.639C48.0817 192.652 48.1452 192.666 48.1875 192.683ZM50.7314 197.067L52.0254 192.717H53.2461L51.4102 198H50.6484L50.7314 197.067ZM49.7402 192.717L51.0586 197.087L51.1221 198H50.3604L48.5146 192.717H49.7402ZM53.6709 195.417V195.305C53.6709 194.924 53.7262 194.571 53.8369 194.245C53.9476 193.916 54.1071 193.632 54.3154 193.391C54.527 193.146 54.7842 192.958 55.0869 192.824C55.3929 192.688 55.738 192.619 56.1221 192.619C56.5094 192.619 56.8545 192.688 57.1572 192.824C57.4632 192.958 57.722 193.146 57.9336 193.391C58.1452 193.632 58.3063 193.916 58.417 194.245C58.5277 194.571 58.583 194.924 58.583 195.305V195.417C58.583 195.798 58.5277 196.151 58.417 196.477C58.3063 196.802 58.1452 197.087 57.9336 197.331C57.722 197.572 57.4648 197.761 57.1621 197.897C56.8594 198.031 56.516 198.098 56.1318 198.098C55.7445 198.098 55.3978 198.031 55.0918 197.897C54.7891 197.761 54.5319 197.572 54.3203 197.331C54.1087 197.087 53.9476 196.802 53.8369 196.477C53.7262 196.151 53.6709 195.798 53.6709 195.417ZM54.8477 195.305V195.417C54.8477 195.655 54.8721 195.879 54.9209 196.091C54.9697 196.302 55.0462 196.488 55.1504 196.647C55.2546 196.807 55.388 196.932 55.5508 197.023C55.7135 197.115 55.9072 197.16 56.1318 197.16C56.3499 197.16 56.5387 197.115 56.6982 197.023C56.861 196.932 56.9945 196.807 57.0986 196.647C57.2028 196.488 57.2793 196.302 57.3281 196.091C57.3802 195.879 57.4062 195.655 57.4062 195.417V195.305C57.4062 195.07 57.3802 194.849 57.3281 194.641C57.2793 194.429 57.2012 194.242 57.0938 194.079C56.9896 193.916 56.8561 193.789 56.6934 193.698C56.5339 193.604 56.3434 193.557 56.1221 193.557C55.9007 193.557 55.7087 193.604 55.5459 193.698C55.3864 193.789 55.2546 193.916 55.1504 194.079C55.0462 194.242 54.9697 194.429 54.9209 194.641C54.8721 194.849 54.8477 195.07 54.8477 195.305ZM62.748 196.755V192.717H63.9297V198H62.8164L62.748 196.755ZM62.9141 195.656L63.3096 195.646C63.3096 196.001 63.2705 196.328 63.1924 196.628C63.1143 196.924 62.9938 197.183 62.8311 197.404C62.6683 197.622 62.46 197.793 62.2061 197.917C61.9521 198.037 61.6478 198.098 61.293 198.098C61.0358 198.098 60.7998 198.06 60.585 197.985C60.3701 197.91 60.1846 197.795 60.0283 197.639C59.8753 197.482 59.7565 197.279 59.6719 197.028C59.5872 196.778 59.5449 196.478 59.5449 196.13V192.717H60.7217V196.14C60.7217 196.332 60.7445 196.493 60.79 196.623C60.8356 196.75 60.8975 196.853 60.9756 196.931C61.0537 197.009 61.1449 197.064 61.249 197.097C61.3532 197.129 61.4639 197.146 61.5811 197.146C61.9163 197.146 62.18 197.08 62.3721 196.95C62.5674 196.817 62.7057 196.638 62.7871 196.413C62.8717 196.188 62.9141 195.936 62.9141 195.656ZM68.0996 196.569C68.0996 196.452 68.0703 196.346 68.0117 196.252C67.9531 196.154 67.8408 196.066 67.6748 195.988C67.512 195.91 67.2712 195.839 66.9521 195.773C66.6722 195.712 66.415 195.638 66.1807 195.554C65.9495 195.466 65.751 195.36 65.585 195.236C65.4189 195.113 65.2904 194.966 65.1992 194.797C65.1081 194.628 65.0625 194.432 65.0625 194.211C65.0625 193.996 65.1097 193.793 65.2041 193.601C65.2985 193.409 65.4336 193.239 65.6094 193.093C65.7852 192.946 65.9984 192.831 66.249 192.746C66.5029 192.661 66.7861 192.619 67.0986 192.619C67.5413 192.619 67.9206 192.694 68.2363 192.844C68.5553 192.99 68.7995 193.19 68.9688 193.444C69.138 193.695 69.2227 193.978 69.2227 194.294H68.0459C68.0459 194.154 68.0101 194.024 67.9385 193.903C67.8701 193.78 67.766 193.68 67.626 193.605C67.486 193.527 67.3102 193.488 67.0986 193.488C66.8968 193.488 66.7292 193.521 66.5957 193.586C66.4655 193.648 66.3678 193.729 66.3027 193.83C66.2409 193.931 66.21 194.042 66.21 194.162C66.21 194.25 66.2262 194.33 66.2588 194.401C66.2946 194.47 66.3532 194.533 66.4346 194.592C66.516 194.647 66.6266 194.699 66.7666 194.748C66.9098 194.797 67.0889 194.844 67.3037 194.89C67.7074 194.974 68.054 195.083 68.3438 195.217C68.6367 195.347 68.8613 195.516 69.0176 195.725C69.1738 195.93 69.252 196.19 69.252 196.506C69.252 196.74 69.2015 196.955 69.1006 197.15C69.0029 197.342 68.8597 197.51 68.6709 197.653C68.4821 197.793 68.2559 197.902 67.9922 197.98C67.7318 198.059 67.4388 198.098 67.1133 198.098C66.6348 198.098 66.2295 198.013 65.8975 197.844C65.5654 197.671 65.3132 197.451 65.1406 197.185C64.9714 196.914 64.8867 196.634 64.8867 196.345H66.0244C66.0374 196.563 66.0977 196.737 66.2051 196.867C66.3158 196.994 66.4525 197.087 66.6152 197.146C66.7812 197.201 66.9521 197.229 67.1279 197.229C67.3395 197.229 67.5169 197.201 67.6602 197.146C67.8034 197.087 67.9124 197.009 67.9873 196.911C68.0622 196.81 68.0996 196.696 68.0996 196.569Z" fill="white"/>
<rect x="148" y="183" width="60" height="23" rx="6" fill="#16C098"/>
<path d="M161.164 195.686H162.385C162.346 196.151 162.215 196.566 161.994 196.931C161.773 197.292 161.462 197.577 161.062 197.785C160.661 197.993 160.174 198.098 159.602 198.098C159.162 198.098 158.767 198.02 158.415 197.863C158.063 197.704 157.762 197.479 157.512 197.189C157.261 196.896 157.069 196.543 156.936 196.13C156.805 195.716 156.74 195.254 156.74 194.743V194.152C156.74 193.641 156.807 193.179 156.94 192.766C157.077 192.352 157.272 191.999 157.526 191.706C157.78 191.41 158.085 191.184 158.439 191.027C158.798 190.871 159.2 190.793 159.646 190.793C160.212 190.793 160.69 190.897 161.081 191.105C161.472 191.314 161.774 191.602 161.989 191.97C162.207 192.338 162.341 192.759 162.39 193.234H161.169C161.136 192.928 161.065 192.666 160.954 192.448C160.847 192.23 160.687 192.064 160.476 191.95C160.264 191.833 159.987 191.774 159.646 191.774C159.366 191.774 159.121 191.826 158.913 191.931C158.705 192.035 158.531 192.188 158.391 192.39C158.251 192.591 158.145 192.84 158.073 193.137C158.005 193.43 157.971 193.765 157.971 194.143V194.743C157.971 195.101 158.002 195.427 158.063 195.72C158.129 196.009 158.226 196.258 158.356 196.467C158.49 196.675 158.659 196.836 158.864 196.95C159.069 197.064 159.315 197.121 159.602 197.121C159.95 197.121 160.231 197.066 160.446 196.955C160.664 196.844 160.829 196.683 160.939 196.472C161.053 196.257 161.128 195.995 161.164 195.686ZM163.156 195.417V195.305C163.156 194.924 163.212 194.571 163.322 194.245C163.433 193.916 163.592 193.632 163.801 193.391C164.012 193.146 164.27 192.958 164.572 192.824C164.878 192.688 165.223 192.619 165.607 192.619C165.995 192.619 166.34 192.688 166.643 192.824C166.949 192.958 167.207 193.146 167.419 193.391C167.631 193.632 167.792 193.916 167.902 194.245C168.013 194.571 168.068 194.924 168.068 195.305V195.417C168.068 195.798 168.013 196.151 167.902 196.477C167.792 196.802 167.631 197.087 167.419 197.331C167.207 197.572 166.95 197.761 166.647 197.897C166.345 198.031 166.001 198.098 165.617 198.098C165.23 198.098 164.883 198.031 164.577 197.897C164.274 197.761 164.017 197.572 163.806 197.331C163.594 197.087 163.433 196.802 163.322 196.477C163.212 196.151 163.156 195.798 163.156 195.417ZM164.333 195.305V195.417C164.333 195.655 164.357 195.879 164.406 196.091C164.455 196.302 164.532 196.488 164.636 196.647C164.74 196.807 164.873 196.932 165.036 197.023C165.199 197.115 165.393 197.16 165.617 197.16C165.835 197.16 166.024 197.115 166.184 197.023C166.346 196.932 166.48 196.807 166.584 196.647C166.688 196.488 166.765 196.302 166.813 196.091C166.866 195.879 166.892 195.655 166.892 195.417V195.305C166.892 195.07 166.866 194.849 166.813 194.641C166.765 194.429 166.687 194.242 166.579 194.079C166.475 193.916 166.341 193.789 166.179 193.698C166.019 193.604 165.829 193.557 165.607 193.557C165.386 193.557 165.194 193.604 165.031 193.698C164.872 193.789 164.74 193.916 164.636 194.079C164.532 194.242 164.455 194.429 164.406 194.641C164.357 194.849 164.333 195.07 164.333 195.305ZM170.222 193.845V198H169.045V192.717H170.153L170.222 193.845ZM170.012 195.163L169.631 195.158C169.634 194.784 169.686 194.44 169.787 194.128C169.891 193.815 170.035 193.547 170.217 193.322C170.402 193.098 170.624 192.925 170.881 192.805C171.138 192.681 171.424 192.619 171.74 192.619C171.994 192.619 172.224 192.655 172.429 192.727C172.637 192.795 172.814 192.907 172.961 193.063C173.111 193.22 173.225 193.423 173.303 193.674C173.381 193.921 173.42 194.226 173.42 194.587V198H172.238V194.582C172.238 194.328 172.201 194.128 172.126 193.981C172.054 193.832 171.949 193.726 171.809 193.664C171.672 193.599 171.501 193.566 171.296 193.566C171.094 193.566 170.913 193.609 170.754 193.693C170.594 193.778 170.459 193.894 170.349 194.04C170.241 194.187 170.158 194.356 170.1 194.548C170.041 194.74 170.012 194.945 170.012 195.163ZM176.135 198H174.953V192.375C174.953 191.949 175.038 191.589 175.207 191.296C175.38 191.003 175.625 190.78 175.944 190.627C176.267 190.474 176.649 190.397 177.092 190.397C177.352 190.397 177.603 190.425 177.844 190.48C178.088 190.536 178.34 190.606 178.601 190.69L178.42 191.647C178.254 191.592 178.07 191.54 177.868 191.491C177.666 191.439 177.434 191.413 177.17 191.413C176.815 191.413 176.553 191.494 176.384 191.657C176.218 191.817 176.135 192.056 176.135 192.375V198ZM177.194 192.717V193.576H174.143V192.717H177.194ZM179.157 192.717V198H177.98V192.717H179.157ZM183.693 196.906V190.5H184.875V198H183.806L183.693 196.906ZM180.256 195.417V195.314C180.256 194.914 180.303 194.549 180.397 194.221C180.492 193.889 180.629 193.604 180.808 193.366C180.987 193.125 181.205 192.941 181.462 192.814C181.719 192.684 182.009 192.619 182.331 192.619C182.65 192.619 182.93 192.681 183.171 192.805C183.412 192.928 183.617 193.106 183.786 193.337C183.955 193.565 184.09 193.838 184.191 194.157C184.292 194.473 184.364 194.825 184.406 195.212V195.539C184.364 195.917 184.292 196.262 184.191 196.574C184.09 196.887 183.955 197.157 183.786 197.385C183.617 197.613 183.41 197.788 183.166 197.912C182.925 198.036 182.644 198.098 182.321 198.098C182.002 198.098 181.714 198.031 181.457 197.897C181.203 197.764 180.987 197.577 180.808 197.336C180.629 197.095 180.492 196.812 180.397 196.486C180.303 196.158 180.256 195.801 180.256 195.417ZM181.433 195.314V195.417C181.433 195.658 181.454 195.882 181.496 196.091C181.542 196.299 181.612 196.483 181.706 196.643C181.8 196.799 181.923 196.923 182.072 197.014C182.225 197.102 182.408 197.146 182.619 197.146C182.886 197.146 183.106 197.087 183.278 196.97C183.451 196.853 183.586 196.695 183.684 196.496C183.785 196.294 183.853 196.07 183.889 195.822V194.938C183.869 194.746 183.828 194.567 183.767 194.401C183.708 194.235 183.628 194.09 183.527 193.967C183.426 193.84 183.301 193.742 183.151 193.674C183.005 193.602 182.831 193.566 182.629 193.566C182.414 193.566 182.232 193.612 182.082 193.703C181.932 193.794 181.809 193.92 181.711 194.079C181.617 194.239 181.547 194.424 181.501 194.636C181.455 194.847 181.433 195.074 181.433 195.314ZM188.435 198.098C188.044 198.098 187.691 198.034 187.375 197.907C187.062 197.777 186.796 197.596 186.574 197.365C186.356 197.134 186.188 196.862 186.071 196.55C185.954 196.237 185.896 195.9 185.896 195.539V195.344C185.896 194.93 185.956 194.556 186.076 194.221C186.197 193.885 186.364 193.599 186.579 193.361C186.794 193.12 187.048 192.937 187.341 192.81C187.634 192.683 187.951 192.619 188.293 192.619C188.671 192.619 189.001 192.683 189.284 192.81C189.567 192.937 189.802 193.116 189.987 193.347C190.176 193.575 190.316 193.846 190.407 194.162C190.502 194.478 190.549 194.826 190.549 195.207V195.71H186.467V194.865H189.387V194.772C189.38 194.561 189.338 194.362 189.26 194.177C189.185 193.991 189.069 193.841 188.913 193.728C188.757 193.614 188.549 193.557 188.288 193.557C188.093 193.557 187.919 193.599 187.766 193.684C187.616 193.765 187.491 193.884 187.39 194.04C187.289 194.196 187.211 194.385 187.155 194.606C187.103 194.825 187.077 195.07 187.077 195.344V195.539C187.077 195.77 187.108 195.985 187.17 196.184C187.235 196.379 187.329 196.55 187.453 196.696C187.577 196.843 187.727 196.958 187.902 197.043C188.078 197.124 188.278 197.165 188.503 197.165C188.786 197.165 189.038 197.108 189.26 196.994C189.481 196.88 189.673 196.719 189.836 196.511L190.456 197.111C190.342 197.277 190.194 197.437 190.012 197.59C189.829 197.74 189.606 197.862 189.343 197.956C189.082 198.05 188.78 198.098 188.435 198.098ZM192.634 193.845V198H191.457V192.717H192.565L192.634 193.845ZM192.424 195.163L192.043 195.158C192.046 194.784 192.098 194.44 192.199 194.128C192.303 193.815 192.447 193.547 192.629 193.322C192.814 193.098 193.036 192.925 193.293 192.805C193.55 192.681 193.837 192.619 194.152 192.619C194.406 192.619 194.636 192.655 194.841 192.727C195.049 192.795 195.227 192.907 195.373 193.063C195.523 193.22 195.637 193.423 195.715 193.674C195.793 193.921 195.832 194.226 195.832 194.587V198H194.65V194.582C194.65 194.328 194.613 194.128 194.538 193.981C194.466 193.832 194.361 193.726 194.221 193.664C194.084 193.599 193.913 193.566 193.708 193.566C193.506 193.566 193.326 193.609 193.166 193.693C193.007 193.778 192.871 193.894 192.761 194.04C192.653 194.187 192.57 194.356 192.512 194.548C192.453 194.74 192.424 194.945 192.424 195.163ZM199.455 192.717V193.576H196.477V192.717H199.455ZM197.336 191.423H198.513V196.54C198.513 196.703 198.535 196.828 198.581 196.916C198.63 197.001 198.697 197.058 198.781 197.087C198.866 197.116 198.965 197.131 199.079 197.131C199.16 197.131 199.239 197.126 199.313 197.116C199.388 197.106 199.449 197.097 199.494 197.087L199.499 197.985C199.401 198.015 199.287 198.041 199.157 198.063C199.03 198.086 198.884 198.098 198.718 198.098C198.448 198.098 198.208 198.05 198 197.956C197.792 197.858 197.629 197.701 197.512 197.482C197.395 197.264 197.336 196.975 197.336 196.613V191.423Z" fill="#1E1E1E"/>
</g>
<defs>
<filter id="filter0_b_944_4673" x="-48" y="-48" width="328" height="342" filterUnits="userSpaceOnUse" color-interpolation-filters="sRGB">
<feFlood flood-opacity="0" result="BackgroundImageFix"/>
<feGaussianBlur in="BackgroundImageFix" stdDeviation="24"/>
<feComposite in2="SourceAlpha" operator="in" result="effect1_backgroundBlur_944_4673"/>
<feBlend mode="normal" in="SourceGraphic" in2="effect1_backgroundBlur_944_4673" result="shape"/>
</filter>
<linearGradient id="paint0_linear_944_4673" x1="116" y1="-1.00438e-05" x2="214.653" y2="100.951" gradientUnits="userSpaceOnUse">
<stop stop-color="#0077C2"/>
<stop offset="1" stop-color="#70757A"/>
</linearGradient>
<linearGradient id="paint1_linear_944_4673" x1="131.339" y1="166.216" x2="237.474" y2="150.485" gradientUnits="userSpaceOnUse">
<stop stop-color="#0077C2" stop-opacity="0.4"/>
<stop offset="1" stop-color="#4470E2" stop-opacity="0.05"/>
</linearGradient>
<linearGradient id="paint2_linear_944_4673" x1="58" y1="82" x2="174" y2="82" gradientUnits="userSpaceOnUse">
<stop stop-color="#00F5A0"/>
<stop offset="1" stop-color="#00D9F5"/>
</linearGradient>
<linearGradient id="paint3_linear_944_4673" x1="27.5" y1="168.131" x2="36.8781" y2="203.888" gradientUnits="userSpaceOnUse">
<stop stop-color="#22B4F8"/>
<stop offset="1" stop-color="#EDF3C2"/>
</linearGradient>
</defs>
</svg>
