<svg width="120" height="120" viewBox="0 0 120 120" fill="none" xmlns="http://www.w3.org/2000/svg">
<rect x="2" y="2" width="116" height="116" rx="58" stroke="url(#paint0_linear_944_4674)" stroke-width="4" stroke-linecap="round" stroke-linejoin="round" stroke-dasharray="8 8"/>
<path d="M40.7109 38.5039V67H35.0859V44.9883L28.3281 47.1367V42.7031L40.1055 38.5039H40.7109ZM55.2617 54.0508L50.7695 52.9766L52.3906 38.5625H68.3672V43.1133H57.0195L56.3164 49.4219C56.694 49.2005 57.2669 48.9661 58.0352 48.7188C58.8034 48.4583 59.6628 48.3281 60.6133 48.3281C61.9935 48.3281 63.2174 48.543 64.2852 48.9727C65.3529 49.4023 66.2578 50.0273 67 50.8477C67.7552 51.668 68.3281 52.6706 68.7188 53.8555C69.1094 55.0404 69.3047 56.3815 69.3047 57.8789C69.3047 59.1419 69.1094 60.3464 68.7188 61.4922C68.3281 62.625 67.7357 63.6406 66.9414 64.5391C66.1471 65.4245 65.151 66.1211 63.9531 66.6289C62.7552 67.1367 61.3359 67.3906 59.6953 67.3906C58.4714 67.3906 57.2865 67.2083 56.1406 66.8438C55.0078 66.4792 53.9857 65.9388 53.0742 65.2227C52.1758 64.5065 51.4531 63.6406 50.9062 62.625C50.3724 61.5964 50.0924 60.4245 50.0664 59.1094H55.6523C55.7305 59.9167 55.9388 60.6133 56.2773 61.1992C56.6289 61.7721 57.0911 62.2148 57.6641 62.5273C58.237 62.8398 58.9076 62.9961 59.6758 62.9961C60.3919 62.9961 61.0039 62.8594 61.5117 62.5859C62.0195 62.3125 62.4297 61.9349 62.7422 61.4531C63.0547 60.9583 63.2826 60.3854 63.4258 59.7344C63.582 59.0703 63.6602 58.3542 63.6602 57.5859C63.6602 56.8177 63.569 56.1211 63.3867 55.4961C63.2044 54.8711 62.9245 54.3307 62.5469 53.875C62.1693 53.4193 61.6875 53.0677 61.1016 52.8203C60.5286 52.5729 59.8581 52.4492 59.0898 52.4492C58.0482 52.4492 57.2409 52.612 56.668 52.9375C56.1081 53.263 55.6393 53.6341 55.2617 54.0508ZM92.8594 56.375V60.7891H72.3711L72.0977 57.3711L83.9531 38.5625H88.4258L83.582 46.668L77.6836 56.375H92.8594ZM89.6367 38.5625V67H84.0117V38.5625H89.6367Z" fill="white"/>
<path d="M46.7451 88.7646L48.7275 81.0469H49.7666L49.6504 83.0361L47.5312 91H46.4512L46.7451 88.7646ZM45.2617 81.0469L46.8682 88.7031L47.0117 91H45.8633L43.5596 81.0469H45.2617ZM52.0156 88.6826L53.6016 81.0469H55.3105L53.0068 91H51.8584L52.0156 88.6826ZM50.1699 81.0469L52.1318 88.7852L52.4189 91H51.3389L49.2539 83.0361L49.1445 81.0469H50.1699ZM60.3623 87.2881H57.7715V85.9277H60.3623C60.8135 85.9277 61.1781 85.8548 61.4561 85.709C61.734 85.5632 61.9368 85.3626 62.0645 85.1074C62.1966 84.8477 62.2627 84.5514 62.2627 84.2188C62.2627 83.9043 62.1966 83.6104 62.0645 83.3369C61.9368 83.0589 61.734 82.8356 61.4561 82.667C61.1781 82.4984 60.8135 82.4141 60.3623 82.4141H58.2979V91H56.582V81.0469H60.3623C61.1325 81.0469 61.7865 81.1836 62.3242 81.457C62.8665 81.7259 63.279 82.0996 63.5615 82.5781C63.8441 83.0521 63.9854 83.5944 63.9854 84.2051C63.9854 84.8477 63.8441 85.3991 63.5615 85.8594C63.279 86.3197 62.8665 86.6729 62.3242 86.9189C61.7865 87.165 61.1325 87.2881 60.3623 87.2881ZM66.2207 81.0469H67.752L70.6299 88.7236L73.501 81.0469H75.0322L71.2314 91H70.0146L66.2207 81.0469ZM65.5234 81.0469H66.9795L67.2324 87.6914V91H65.5234V81.0469ZM74.2734 81.0469H75.7363V91H74.0205V87.6914L74.2734 81.0469Z" fill="#0084FF"/>
<defs>
<linearGradient id="paint0_linear_944_4674" x1="2" y1="60" x2="118" y2="60" gradientUnits="userSpaceOnUse">
<stop stop-color="#00F5A0"/>
<stop offset="1" stop-color="#00D9F5"/>
</linearGradient>
</defs>
</svg>
