<svg width="224" height="64" viewBox="0 0 224 64" fill="none" xmlns="http://www.w3.org/2000/svg">
<g filter="url(#filter0_b_944_4739)">
<path d="M0 12C0 5.37258 5.37258 0 12 0H212C218.627 0 224 5.37258 224 12V64H12C5.37258 64 0 58.6274 0 52V12Z" fill="url(#paint0_linear_944_4739)" fill-opacity="0.1"/>
<path d="M0.367361 12C0.367361 5.57547 5.57547 0.367361 12 0.367361H212C218.425 0.367361 223.633 5.57547 223.633 12V63.6326H12C5.57547 63.6326 0.367361 58.4245 0.367361 52V12Z" stroke="url(#paint1_linear_944_4739)" stroke-width="0.734722"/>
<g opacity="0.7">
<line x1="21" y1="38.187" x2="21" y2="25.813" stroke="url(#paint2_linear_944_4739)" stroke-width="2" stroke-linecap="round"/>
<line x1="26" y1="35.0571" x2="26" y2="28.9432" stroke="url(#paint3_linear_944_4739)" stroke-width="2" stroke-linecap="round"/>
<line x1="31" y1="36.0718" x2="31" y2="27.9286" stroke="url(#paint4_linear_944_4739)" stroke-width="2" stroke-linecap="round"/>
<line x1="36" y1="40.2124" x2="36" y2="23.7873" stroke="url(#paint5_linear_944_4739)" stroke-width="2" stroke-linecap="round"/>
<line x1="41" y1="40.1753" x2="41" y2="23.8244" stroke="url(#paint6_linear_944_4739)" stroke-width="2" stroke-linecap="round"/>
<line x1="46" y1="39.6582" x2="46" y2="24.3413" stroke="url(#paint7_linear_944_4739)" stroke-width="2" stroke-linecap="round"/>
<line x1="51" y1="33.4551" x2="51" y2="30.5448" stroke="url(#paint8_linear_944_4739)" stroke-width="2" stroke-linecap="round"/>
<line x1="56" y1="40.7754" x2="56" y2="23.2246" stroke="url(#paint9_linear_944_4739)" stroke-width="2" stroke-linecap="round"/>
<line x1="61" y1="38.8584" x2="61" y2="25.1411" stroke="url(#paint10_linear_944_4739)" stroke-width="2" stroke-linecap="round"/>
<line x1="66" y1="37.1494" x2="66" y2="26.8505" stroke="url(#paint11_linear_944_4739)" stroke-width="2" stroke-linecap="round"/>
<line x1="71" y1="37.1685" x2="71" y2="26.8315" stroke="url(#paint12_linear_944_4739)" stroke-width="2" stroke-linecap="round"/>
<line x1="76" y1="38.7715" x2="76" y2="25.228" stroke="url(#paint13_linear_944_4739)" stroke-width="2" stroke-linecap="round"/>
<line x1="81" y1="38.9033" x2="81" y2="25.0965" stroke="url(#paint14_linear_944_4739)" stroke-width="2" stroke-linecap="round"/>
<line x1="86" y1="38.6035" x2="86" y2="25.3968" stroke="url(#paint15_linear_944_4739)" stroke-width="2" stroke-linecap="round"/>
<line x1="91" y1="38.1353" x2="91" y2="25.8649" stroke="url(#paint16_linear_944_4739)" stroke-width="2" stroke-linecap="round"/>
<line x1="96" y1="40.1357" x2="96" y2="23.8646" stroke="url(#paint17_linear_944_4739)" stroke-width="2" stroke-linecap="round"/>
<line x1="101" y1="43.876" x2="101" y2="20.1244" stroke="url(#paint18_linear_944_4739)" stroke-width="2" stroke-linecap="round"/>
<line x1="106" y1="39.6523" x2="106" y2="24.3481" stroke="url(#paint19_linear_944_4739)" stroke-width="2" stroke-linecap="round"/>
<line x1="111" y1="34.6978" x2="111" y2="29.302" stroke="url(#paint20_linear_944_4739)" stroke-width="2" stroke-linecap="round"/>
<line x1="116" y1="36.7573" x2="116" y2="27.2424" stroke="url(#paint21_linear_944_4739)" stroke-width="2" stroke-linecap="round"/>
<line x1="121" y1="39.9165" x2="121" y2="24.083" stroke="url(#paint22_linear_944_4739)" stroke-width="2" stroke-linecap="round"/>
<line x1="126" y1="34.7505" x2="126" y2="29.2492" stroke="url(#paint23_linear_944_4739)" stroke-width="2" stroke-linecap="round"/>
<line x1="131" y1="40.7734" x2="131" y2="23.2264" stroke="url(#paint24_linear_944_4739)" stroke-width="2" stroke-linecap="round"/>
<line x1="136" y1="42.7705" x2="136" y2="21.2296" stroke="url(#paint25_linear_944_4739)" stroke-width="2" stroke-linecap="round"/>
<line x1="141" y1="37.4424" x2="141" y2="26.558" stroke="url(#paint26_linear_944_4739)" stroke-width="2" stroke-linecap="round"/>
<line x1="146" y1="35.1196" x2="146" y2="28.88" stroke="url(#paint27_linear_944_4739)" stroke-width="2" stroke-linecap="round"/>
<line x1="151" y1="33.8467" x2="151" y2="30.1538" stroke="url(#paint28_linear_944_4739)" stroke-width="2" stroke-linecap="round"/>
<line x1="156" y1="34.8042" x2="156" y2="29.1962" stroke="url(#paint29_linear_944_4739)" stroke-width="2" stroke-linecap="round"/>
<line x1="161" y1="44.1221" x2="161" y2="19.8775" stroke="url(#paint30_linear_944_4739)" stroke-width="2" stroke-linecap="round"/>
<line x1="166" y1="38.6758" x2="166" y2="25.3245" stroke="url(#paint31_linear_944_4739)" stroke-width="2" stroke-linecap="round"/>
<line x1="171" y1="36.7051" x2="171" y2="27.2954" stroke="url(#paint32_linear_944_4739)" stroke-width="2" stroke-linecap="round"/>
<line x1="176" y1="37.7354" x2="176" y2="26.2647" stroke="url(#paint33_linear_944_4739)" stroke-width="2" stroke-linecap="round"/>
<line x1="181" y1="44.2153" x2="181" y2="19.7849" stroke="url(#paint34_linear_944_4739)" stroke-width="2" stroke-linecap="round"/>
<line x1="186" y1="44.1807" x2="186" y2="19.8192" stroke="url(#paint35_linear_944_4739)" stroke-width="2" stroke-linecap="round"/>
<line x1="191" y1="34.3745" x2="191" y2="29.6259" stroke="url(#paint36_linear_944_4739)" stroke-width="2" stroke-linecap="round"/>
<line x1="196" y1="37.5488" x2="196" y2="26.4507" stroke="url(#paint37_linear_944_4739)" stroke-width="2" stroke-linecap="round"/>
<line x1="201" y1="37.4082" x2="201" y2="26.5914" stroke="url(#paint38_linear_944_4739)" stroke-width="2" stroke-linecap="round"/>
</g>
</g>
<defs>
<filter id="filter0_b_944_4739" x="-24" y="-24" width="272" height="112" filterUnits="userSpaceOnUse" color-interpolation-filters="sRGB">
<feFlood flood-opacity="0" result="BackgroundImageFix"/>
<feGaussianBlur in="BackgroundImageFix" stdDeviation="12"/>
<feComposite in2="SourceAlpha" operator="in" result="effect1_backgroundBlur_944_4739"/>
<feBlend mode="normal" in="SourceGraphic" in2="effect1_backgroundBlur_944_4739" result="shape"/>
</filter>
<linearGradient id="paint0_linear_944_4739" x1="112" y1="-2.61303e-06" x2="124.644" y2="48.0161" gradientUnits="userSpaceOnUse">
<stop stop-color="#0077C2"/>
<stop offset="1" stop-color="#70757A"/>
</linearGradient>
<linearGradient id="paint1_linear_944_4739" x1="126.81" y1="43.2432" x2="207.21" y2="-0.982327" gradientUnits="userSpaceOnUse">
<stop stop-color="#0077C2" stop-opacity="0.4"/>
<stop offset="1" stop-color="#4470E2" stop-opacity="0.05"/>
</linearGradient>
<linearGradient id="paint2_linear_944_4739" x1="22.1308" y1="39.187" x2="30.5635" y2="23.339" gradientUnits="userSpaceOnUse">
<stop stop-color="#22B4F8"/>
<stop offset="1" stop-color="#EDF3C2"/>
</linearGradient>
<linearGradient id="paint3_linear_944_4739" x1="27.1308" y1="36.0571" x2="30.2933" y2="25.5281" gradientUnits="userSpaceOnUse">
<stop stop-color="#22B4F8"/>
<stop offset="1" stop-color="#EDF3C2"/>
</linearGradient>
<linearGradient id="paint4_linear_944_4739" x1="32.1308" y1="37.0718" x2="36.853" y2="24.4952" gradientUnits="userSpaceOnUse">
<stop stop-color="#22B4F8"/>
<stop offset="1" stop-color="#EDF3C2"/>
</linearGradient>
<linearGradient id="paint5_linear_944_4739" x1="37.1308" y1="41.2124" x2="49.2647" y2="23.4223" gradientUnits="userSpaceOnUse">
<stop stop-color="#22B4F8"/>
<stop offset="1" stop-color="#EDF3C2"/>
</linearGradient>
<linearGradient id="paint6_linear_944_4739" x1="42.1308" y1="41.1753" x2="54.198" y2="23.4115" gradientUnits="userSpaceOnUse">
<stop stop-color="#22B4F8"/>
<stop offset="1" stop-color="#EDF3C2"/>
</linearGradient>
<linearGradient id="paint7_linear_944_4739" x1="47.1308" y1="40.6582" x2="58.2613" y2="23.2949" gradientUnits="userSpaceOnUse">
<stop stop-color="#22B4F8"/>
<stop offset="1" stop-color="#EDF3C2"/>
</linearGradient>
<linearGradient id="paint8_linear_944_4739" x1="52.1308" y1="34.4551" x2="53.3531" y2="27.7306" gradientUnits="userSpaceOnUse">
<stop stop-color="#22B4F8"/>
<stop offset="1" stop-color="#EDF3C2"/>
</linearGradient>
<linearGradient id="paint9_linear_944_4739" x1="57.1308" y1="41.7754" x2="70.2674" y2="23.6241" gradientUnits="userSpaceOnUse">
<stop stop-color="#22B4F8"/>
<stop offset="1" stop-color="#EDF3C2"/>
</linearGradient>
<linearGradient id="paint10_linear_944_4739" x1="62.1308" y1="39.8584" x2="71.796" y2="23.2464" gradientUnits="userSpaceOnUse">
<stop stop-color="#22B4F8"/>
<stop offset="1" stop-color="#EDF3C2"/>
</linearGradient>
<linearGradient id="paint11_linear_944_4739" x1="67.1308" y1="38.1494" x2="73.6923" y2="23.7374" gradientUnits="userSpaceOnUse">
<stop stop-color="#22B4F8"/>
<stop offset="1" stop-color="#EDF3C2"/>
</linearGradient>
<linearGradient id="paint12_linear_944_4739" x1="72.1308" y1="38.1685" x2="78.7259" y2="23.7272" gradientUnits="userSpaceOnUse">
<stop stop-color="#22B4F8"/>
<stop offset="1" stop-color="#EDF3C2"/>
</linearGradient>
<linearGradient id="paint13_linear_944_4739" x1="77.1308" y1="39.7715" x2="86.6363" y2="23.2513" gradientUnits="userSpaceOnUse">
<stop stop-color="#22B4F8"/>
<stop offset="1" stop-color="#EDF3C2"/>
</linearGradient>
<linearGradient id="paint14_linear_944_4739" x1="82.1308" y1="39.9033" x2="91.8783" y2="23.2448" gradientUnits="userSpaceOnUse">
<stop stop-color="#22B4F8"/>
<stop offset="1" stop-color="#EDF3C2"/>
</linearGradient>
<linearGradient id="paint15_linear_944_4739" x1="87.1308" y1="39.6035" x2="96.3268" y2="23.2671" gradientUnits="userSpaceOnUse">
<stop stop-color="#22B4F8"/>
<stop offset="1" stop-color="#EDF3C2"/>
</linearGradient>
<linearGradient id="paint16_linear_944_4739" x1="92.1308" y1="39.1353" x2="100.469" y2="23.3514" gradientUnits="userSpaceOnUse">
<stop stop-color="#22B4F8"/>
<stop offset="1" stop-color="#EDF3C2"/>
</linearGradient>
<linearGradient id="paint17_linear_944_4739" x1="97.1308" y1="41.1357" x2="109.126" y2="23.4006" gradientUnits="userSpaceOnUse">
<stop stop-color="#22B4F8"/>
<stop offset="1" stop-color="#EDF3C2"/>
</linearGradient>
<linearGradient id="paint18_linear_944_4739" x1="102.131" y1="44.876" x2="120.325" y2="25.7894" gradientUnits="userSpaceOnUse">
<stop stop-color="#22B4F8"/>
<stop offset="1" stop-color="#EDF3C2"/>
</linearGradient>
<linearGradient id="paint19_linear_944_4739" x1="107.131" y1="40.6523" x2="118.25" y2="23.2943" gradientUnits="userSpaceOnUse">
<stop stop-color="#22B4F8"/>
<stop offset="1" stop-color="#EDF3C2"/>
</linearGradient>
<linearGradient id="paint20_linear_944_4739" x1="112.131" y1="35.6978" x2="114.796" y2="25.9644" gradientUnits="userSpaceOnUse">
<stop stop-color="#22B4F8"/>
<stop offset="1" stop-color="#EDF3C2"/>
</linearGradient>
<linearGradient id="paint21_linear_944_4739" x1="117.131" y1="37.7573" x2="123.007" y2="23.9719" gradientUnits="userSpaceOnUse">
<stop stop-color="#22B4F8"/>
<stop offset="1" stop-color="#EDF3C2"/>
</linearGradient>
<linearGradient id="paint22_linear_944_4739" x1="122.131" y1="40.9165" x2="133.731" y2="23.3451" gradientUnits="userSpaceOnUse">
<stop stop-color="#22B4F8"/>
<stop offset="1" stop-color="#EDF3C2"/>
</linearGradient>
<linearGradient id="paint23_linear_944_4739" x1="127.131" y1="35.7505" x2="129.867" y2="25.898" gradientUnits="userSpaceOnUse">
<stop stop-color="#22B4F8"/>
<stop offset="1" stop-color="#EDF3C2"/>
</linearGradient>
<linearGradient id="paint24_linear_944_4739" x1="132.131" y1="41.7734" x2="145.264" y2="23.6232" gradientUnits="userSpaceOnUse">
<stop stop-color="#22B4F8"/>
<stop offset="1" stop-color="#EDF3C2"/>
</linearGradient>
<linearGradient id="paint25_linear_944_4739" x1="137.131" y1="43.7705" x2="153.626" y2="24.8416" gradientUnits="userSpaceOnUse">
<stop stop-color="#22B4F8"/>
<stop offset="1" stop-color="#EDF3C2"/>
</linearGradient>
<linearGradient id="paint26_linear_944_4739" x1="142.131" y1="38.4424" x2="149.213" y2="23.5927" gradientUnits="userSpaceOnUse">
<stop stop-color="#22B4F8"/>
<stop offset="1" stop-color="#EDF3C2"/>
</linearGradient>
<linearGradient id="paint27_linear_944_4739" x1="147.131" y1="36.1196" x2="150.384" y2="25.4551" gradientUnits="userSpaceOnUse">
<stop stop-color="#22B4F8"/>
<stop offset="1" stop-color="#EDF3C2"/>
</linearGradient>
<linearGradient id="paint28_linear_944_4739" x1="152.131" y1="34.8467" x2="153.756" y2="27.1353" gradientUnits="userSpaceOnUse">
<stop stop-color="#22B4F8"/>
<stop offset="1" stop-color="#EDF3C2"/>
</linearGradient>
<linearGradient id="paint29_linear_944_4739" x1="157.131" y1="35.8042" x2="159.939" y2="25.832" gradientUnits="userSpaceOnUse">
<stop stop-color="#22B4F8"/>
<stop offset="1" stop-color="#EDF3C2"/>
</linearGradient>
<linearGradient id="paint30_linear_944_4739" x1="162.131" y1="45.1221" x2="180.687" y2="26.0216" gradientUnits="userSpaceOnUse">
<stop stop-color="#22B4F8"/>
<stop offset="1" stop-color="#EDF3C2"/>
</linearGradient>
<linearGradient id="paint31_linear_944_4739" x1="167.131" y1="39.6758" x2="176.46" y2="23.2595" gradientUnits="userSpaceOnUse">
<stop stop-color="#22B4F8"/>
<stop offset="1" stop-color="#EDF3C2"/>
</linearGradient>
<linearGradient id="paint32_linear_944_4739" x1="172.131" y1="37.7051" x2="177.916" y2="24.0073" gradientUnits="userSpaceOnUse">
<stop stop-color="#22B4F8"/>
<stop offset="1" stop-color="#EDF3C2"/>
</linearGradient>
<linearGradient id="paint33_linear_944_4739" x1="177.131" y1="38.7354" x2="184.741" y2="23.4733" gradientUnits="userSpaceOnUse">
<stop stop-color="#22B4F8"/>
<stop offset="1" stop-color="#EDF3C2"/>
</linearGradient>
<linearGradient id="paint34_linear_944_4739" x1="182.131" y1="45.2153" x2="200.822" y2="26.1115" gradientUnits="userSpaceOnUse">
<stop stop-color="#22B4F8"/>
<stop offset="1" stop-color="#EDF3C2"/>
</linearGradient>
<linearGradient id="paint35_linear_944_4739" x1="187.131" y1="45.1807" x2="205.772" y2="26.0779" gradientUnits="userSpaceOnUse">
<stop stop-color="#22B4F8"/>
<stop offset="1" stop-color="#EDF3C2"/>
</linearGradient>
<linearGradient id="paint36_linear_944_4739" x1="192.131" y1="35.3745" x2="194.376" y2="26.388" gradientUnits="userSpaceOnUse">
<stop stop-color="#22B4F8"/>
<stop offset="1" stop-color="#EDF3C2"/>
</linearGradient>
<linearGradient id="paint37_linear_944_4739" x1="197.131" y1="38.5488" x2="204.405" y2="23.5459" gradientUnits="userSpaceOnUse">
<stop stop-color="#22B4F8"/>
<stop offset="1" stop-color="#EDF3C2"/>
</linearGradient>
<linearGradient id="paint38_linear_944_4739" x1="202.131" y1="38.4082" x2="209.153" y2="23.6078" gradientUnits="userSpaceOnUse">
<stop stop-color="#22B4F8"/>
<stop offset="1" stop-color="#EDF3C2"/>
</linearGradient>
</defs>
</svg>
