<svg width="217" height="40" viewBox="0 0 217 40" fill="none" xmlns="http://www.w3.org/2000/svg">
<circle cx="10.2861" cy="20" r="10.2861" fill="#008EFF"/>
<path d="M6.36084 24.4099C6.2251 24.4097 6.09569 24.3524 6.0042 24.2522C5.91101 24.1527 5.86471 24.0182 5.87692 23.8824L5.99549 22.5788L11.4725 17.1037L13.1841 18.8148L7.70856 24.2894L6.40488 24.408C6.38988 24.4094 6.37488 24.4099 6.36084 24.4099ZM13.5257 18.4727L11.8146 16.7616L12.841 15.7352C12.9318 15.6443 13.0549 15.5933 13.1834 15.5933C13.3118 15.5933 13.435 15.6443 13.5257 15.7352L14.5521 16.7616C14.643 16.8523 14.6941 16.9755 14.6941 17.104C14.6941 17.2324 14.643 17.3556 14.5521 17.4463L13.5262 18.4722L13.5257 18.4727Z" fill="white"/>
<g opacity="0.7">
<line x1="31.5723" y1="23.0273" x2="31.5723" y2="16.9726" stroke="#16C098" stroke-width="2" stroke-linecap="round"/>
<line x1="37.5723" y1="23.4233" x2="37.5723" y2="16.577" stroke="#16C098" stroke-width="2" stroke-linecap="round"/>
<line x1="43.5723" y1="26.0942" x2="43.5723" y2="13.9061" stroke="#16C098" stroke-width="2" stroke-linecap="round"/>
<line x1="49.5723" y1="23.3384" x2="49.5723" y2="16.6618" stroke="#16C098" stroke-width="2" stroke-linecap="round"/>
<line x1="55.5723" y1="21.3013" x2="55.5723" y2="18.699" stroke="#16C098" stroke-width="2" stroke-linecap="round"/>
<line x1="61.5723" y1="22.9897" x2="61.5723" y2="17.0103" stroke="#16C098" stroke-width="2" stroke-linecap="round"/>
<line x1="67.5723" y1="27.1284" x2="67.5723" y2="12.8712" stroke="#16C098" stroke-width="2" stroke-linecap="round"/>
<line x1="73.5723" y1="24.2817" x2="73.5723" y2="15.7184" stroke="#16C098" stroke-width="2" stroke-linecap="round"/>
<line x1="79.5723" y1="21.1299" x2="79.5723" y2="18.8701" stroke="#16C098" stroke-width="2" stroke-linecap="round"/>
<line x1="85.5723" y1="25.9453" x2="85.5723" y2="14.0552" stroke="#16C098" stroke-width="2" stroke-linecap="round"/>
<line x1="91.5723" y1="28.1328" x2="91.5723" y2="11.8669" stroke="#16C098" stroke-width="2" stroke-linecap="round"/>
<line x1="97.5723" y1="23.6909" x2="97.5723" y2="16.3093" stroke="#16C098" stroke-width="2" stroke-linecap="round"/>
<line x1="103.572" y1="21.1138" x2="103.572" y2="18.886" stroke="#16C098" stroke-width="2" stroke-linecap="round"/>
<line x1="109.572" y1="24.1313" x2="109.572" y2="15.8688" stroke="#16C098" stroke-width="2" stroke-linecap="round"/>
<line x1="115.572" y1="28.1465" x2="115.572" y2="11.8534" stroke="#16C098" stroke-width="2" stroke-linecap="round"/>
<line x1="121.572" y1="22.4863" x2="121.572" y2="17.5141" stroke="#16C098" stroke-width="2" stroke-linecap="round"/>
<line x1="127.572" y1="26.877" x2="127.572" y2="13.1235" stroke="#16C098" stroke-width="2" stroke-linecap="round"/>
<line x1="133.572" y1="21.4946" x2="133.572" y2="18.5053" stroke="#16C098" stroke-width="2" stroke-linecap="round"/>
<line x1="139.572" y1="23.8491" x2="139.572" y2="16.1513" stroke="#16C098" stroke-width="2" stroke-linecap="round"/>
<line x1="145.572" y1="28.2935" x2="145.572" y2="11.7064" stroke="#16C098" stroke-width="2" stroke-linecap="round"/>
<line x1="151.572" y1="25.3696" x2="151.572" y2="14.6302" stroke="#16C098" stroke-width="2" stroke-linecap="round"/>
<line x1="157.572" y1="23.5303" x2="157.572" y2="16.4694" stroke="#16C098" stroke-width="2" stroke-linecap="round"/>
<line x1="163.572" y1="21.2646" x2="163.572" y2="18.7349" stroke="#16C098" stroke-width="2" stroke-linecap="round"/>
<line x1="169.572" y1="24.915" x2="169.572" y2="15.0848" stroke="#16C098" stroke-width="2" stroke-linecap="round"/>
<line x1="175.572" y1="22.0938" x2="175.572" y2="17.9058" stroke="#16C098" stroke-width="2" stroke-linecap="round"/>
<line x1="181.572" y1="22.9268" x2="181.572" y2="17.0732" stroke="#16C098" stroke-width="2" stroke-linecap="round"/>
<line x1="187.572" y1="25" x2="187.572" y2="15.0002" stroke="#16C098" stroke-width="2" stroke-linecap="round"/>
<line x1="193.572" y1="25.4043" x2="193.572" y2="14.5956" stroke="#16C098" stroke-width="2" stroke-linecap="round"/>
<line x1="199.572" y1="23.7163" x2="199.572" y2="16.2837" stroke="#16C098" stroke-width="2" stroke-linecap="round"/>
<line x1="205.572" y1="22.7554" x2="205.572" y2="17.2443" stroke="#16C098" stroke-width="2" stroke-linecap="round"/>
<line x1="211.572" y1="26.5215" x2="211.572" y2="13.4788" stroke="#16C098" stroke-width="2" stroke-linecap="round"/>
</g>
</svg>
