<svg width="224" height="64" viewBox="0 0 224 64" fill="none" xmlns="http://www.w3.org/2000/svg">
<g filter="url(#filter0_b_944_4632)">
<path d="M0 12C0 5.37258 5.37258 0 12 0H212C218.627 0 224 5.37258 224 12V52C224 58.6274 218.627 64 212 64H0V12Z" fill="url(#paint0_linear_944_4632)" fill-opacity="0.1"/>
<path d="M0.367361 12C0.367361 5.57547 5.57547 0.367361 12 0.367361H212C218.425 0.367361 223.633 5.57547 223.633 12V52C223.633 58.4245 218.425 63.6326 212 63.6326H0.367361V12Z" stroke="url(#paint1_linear_944_4632)" stroke-width="0.734722"/>
<g opacity="0.7">
<line x1="21" y1="42.5205" x2="21" y2="21.4792" stroke="#16C098" stroke-width="2" stroke-linecap="round"/>
<line x1="26" y1="40.6636" x2="26" y2="23.3364" stroke="#16C098" stroke-width="2" stroke-linecap="round"/>
<line x1="31" y1="35.3799" x2="31" y2="28.6201" stroke="#16C098" stroke-width="2" stroke-linecap="round"/>
<line x1="36" y1="34.1348" x2="36" y2="29.8657" stroke="#16C098" stroke-width="2" stroke-linecap="round"/>
<line x1="41" y1="35.2046" x2="41" y2="28.7949" stroke="#16C098" stroke-width="2" stroke-linecap="round"/>
<line x1="46" y1="40.0244" x2="46" y2="23.9754" stroke="#16C098" stroke-width="2" stroke-linecap="round"/>
<line x1="51" y1="43.3169" x2="51" y2="20.6829" stroke="#16C098" stroke-width="2" stroke-linecap="round"/>
<line x1="56" y1="39.6216" x2="56" y2="24.3781" stroke="#16C098" stroke-width="2" stroke-linecap="round"/>
<line x1="61" y1="43.8765" x2="61" y2="20.1236" stroke="#16C098" stroke-width="2" stroke-linecap="round"/>
<line x1="66" y1="42.9492" x2="66" y2="21.0506" stroke="#16C098" stroke-width="2" stroke-linecap="round"/>
<line x1="71" y1="43.5806" x2="71" y2="20.4198" stroke="#16C098" stroke-width="2" stroke-linecap="round"/>
<line x1="76" y1="35.7822" x2="76" y2="28.2173" stroke="#16C098" stroke-width="2" stroke-linecap="round"/>
<line x1="81" y1="34.5229" x2="81" y2="29.4771" stroke="#16C098" stroke-width="2" stroke-linecap="round"/>
<line x1="86" y1="37.4604" x2="86" y2="26.54" stroke="#16C098" stroke-width="2" stroke-linecap="round"/>
<line x1="91" y1="39.7437" x2="91" y2="24.2559" stroke="#16C098" stroke-width="2" stroke-linecap="round"/>
<line x1="96" y1="39.418" x2="96" y2="24.5816" stroke="#16C098" stroke-width="2" stroke-linecap="round"/>
<line x1="101" y1="34.5269" x2="101" y2="29.473" stroke="#16C098" stroke-width="2" stroke-linecap="round"/>
<line x1="106" y1="33.2178" x2="106" y2="30.7822" stroke="#16C098" stroke-width="2" stroke-linecap="round"/>
<line x1="111" y1="39.4844" x2="111" y2="24.516" stroke="#16C098" stroke-width="2" stroke-linecap="round"/>
<line x1="116" y1="44.6216" x2="116" y2="19.3783" stroke="#16C098" stroke-width="2" stroke-linecap="round"/>
<line x1="121" y1="44.3193" x2="121" y2="19.6808" stroke="#16C098" stroke-width="2" stroke-linecap="round"/>
<line x1="126" y1="42.7715" x2="126" y2="21.2283" stroke="#16C098" stroke-width="2" stroke-linecap="round"/>
<line x1="131" y1="35.9619" x2="131" y2="28.0376" stroke="#16C098" stroke-width="2" stroke-linecap="round"/>
<line x1="136" y1="33.6992" x2="136" y2="30.301" stroke="#16C098" stroke-width="2" stroke-linecap="round"/>
<line x1="141" y1="37.1514" x2="141" y2="26.8491" stroke="#16C098" stroke-width="2" stroke-linecap="round"/>
<line x1="146" y1="34.8726" x2="146" y2="29.1271" stroke="#16C098" stroke-width="2" stroke-linecap="round"/>
<line x1="151" y1="41.7319" x2="151" y2="22.268" stroke="#16C098" stroke-width="2" stroke-linecap="round"/>
<line x1="156" y1="41.5024" x2="156" y2="22.4971" stroke="#16C098" stroke-width="2" stroke-linecap="round"/>
<line x1="161" y1="38.5293" x2="161" y2="25.4711" stroke="#16C098" stroke-width="2" stroke-linecap="round"/>
<line x1="166" y1="43.6519" x2="166" y2="20.3482" stroke="#16C098" stroke-width="2" stroke-linecap="round"/>
<line x1="171" y1="38.9902" x2="171" y2="25.0101" stroke="#16C098" stroke-width="2" stroke-linecap="round"/>
<line x1="176" y1="43.7998" x2="176" y2="20.2006" stroke="#16C098" stroke-width="2" stroke-linecap="round"/>
<line x1="181" y1="38.2773" x2="181" y2="25.7225" stroke="#16C098" stroke-width="2" stroke-linecap="round"/>
<line x1="186" y1="41.8408" x2="186" y2="22.1595" stroke="#16C098" stroke-width="2" stroke-linecap="round"/>
<line x1="191" y1="33.4731" x2="191" y2="30.527" stroke="#16C098" stroke-width="2" stroke-linecap="round"/>
<line x1="196" y1="38.2524" x2="196" y2="25.7478" stroke="#16C098" stroke-width="2" stroke-linecap="round"/>
<line x1="201" y1="43.2969" x2="201" y2="20.703" stroke="#16C098" stroke-width="2" stroke-linecap="round"/>
</g>
</g>
<defs>
<filter id="filter0_b_944_4632" x="-24" y="-24" width="272" height="112" filterUnits="userSpaceOnUse" color-interpolation-filters="sRGB">
<feFlood flood-opacity="0" result="BackgroundImageFix"/>
<feGaussianBlur in="BackgroundImageFix" stdDeviation="12"/>
<feComposite in2="SourceAlpha" operator="in" result="effect1_backgroundBlur_944_4632"/>
<feBlend mode="normal" in="SourceGraphic" in2="effect1_backgroundBlur_944_4632" result="shape"/>
</filter>
<linearGradient id="paint0_linear_944_4632" x1="112" y1="-2.61303e-06" x2="124.644" y2="48.0161" gradientUnits="userSpaceOnUse">
<stop stop-color="#0077C2"/>
<stop offset="1" stop-color="#70757A"/>
</linearGradient>
<linearGradient id="paint1_linear_944_4632" x1="126.81" y1="43.2432" x2="207.21" y2="-0.982327" gradientUnits="userSpaceOnUse">
<stop stop-color="#0077C2" stop-opacity="0.4"/>
<stop offset="1" stop-color="#4470E2" stop-opacity="0.05"/>
</linearGradient>
</defs>
</svg>
