<svg width="30" height="30" viewBox="0 0 30 30" fill="none" xmlns="http://www.w3.org/2000/svg">
<rect x="1" y="1" width="28" height="28" rx="14" stroke="url(#paint0_linear_880_4636)" stroke-width="2"/>
<path fill-rule="evenodd" clip-rule="evenodd" d="M13 10C13.2232 10 13.4194 10.148 13.4808 10.3626L14.0229 12.2601C14.2602 13.0906 14.9094 13.7398 15.7399 13.9771L17.6374 14.5192C17.852 14.5806 18 14.7768 18 15C18 15.2232 17.852 15.4194 17.6374 15.4808L15.7399 16.0229C14.9094 16.2602 14.2602 16.9094 14.0229 17.7399L13.4808 19.6374C13.4194 19.852 13.2232 20 13 20C12.7768 20 12.5806 19.852 12.5192 19.6374L11.9771 17.7399C11.7398 16.9094 11.0906 16.2602 10.2601 16.0229L8.36264 15.4808C8.14799 15.4194 8 15.2232 8 15C8 14.7768 8.14799 14.5806 8.36264 14.5192L10.2601 13.9771C11.0906 13.7398 11.7398 13.0906 11.9771 12.2601L12.5192 10.3626C12.5806 10.148 12.7768 10 13 10Z" fill="url(#paint1_linear_880_4636)"/>
<path fill-rule="evenodd" clip-rule="evenodd" d="M19 8C19.2294 8 19.4294 8.15615 19.4851 8.37873L19.6576 9.06904C19.8144 9.69604 20.304 10.1856 20.931 10.3424L21.6213 10.5149C21.8439 10.5706 22 10.7706 22 11C22 11.2294 21.8439 11.4294 21.6213 11.4851L20.931 11.6576C20.304 11.8144 19.8144 12.304 19.6576 12.931L19.4851 13.6213C19.4294 13.8439 19.2294 14 19 14C18.7706 14 18.5706 13.8439 18.5149 13.6213L18.3424 12.931C18.1856 12.304 17.696 11.8144 17.069 11.6576L16.3787 11.4851C16.1561 11.4294 16 11.2294 16 11C16 10.7706 16.1561 10.5706 16.3787 10.5149L17.069 10.3424C17.696 10.1856 18.1856 9.69604 18.3424 9.06904L18.5149 8.37873C18.5706 8.15615 18.7706 8 19 8Z" fill="url(#paint2_linear_880_4636)"/>
<path fill-rule="evenodd" clip-rule="evenodd" d="M18 17C18.2152 17 18.4063 17.1377 18.4743 17.3419L18.7372 18.1304C18.8367 18.429 19.071 18.6633 19.3696 18.7628L20.1581 19.0257C20.3623 19.0937 20.5 19.2848 20.5 19.5C20.5 19.7152 20.3623 19.9063 20.1581 19.9743L19.3696 20.2372C19.071 20.3367 18.8367 20.571 18.7372 20.8696L18.4743 21.6581C18.4063 21.8623 18.2152 22 18 22C17.7848 22 17.5937 21.8623 17.5257 21.6581L17.2628 20.8696C17.1633 20.571 16.929 20.3367 16.6304 20.2372L15.8419 19.9743C15.6377 19.9063 15.5 19.7152 15.5 19.5C15.5 19.2848 15.6377 19.0937 15.8419 19.0257L16.6304 18.7628C16.929 18.6633 17.1633 18.429 17.2628 18.1304L17.5257 17.3419C17.5937 17.1377 17.7848 17 18 17Z" fill="url(#paint3_linear_880_4636)"/>
<defs>
<linearGradient id="paint0_linear_880_4636" x1="8.41471e-09" y1="3.92308" x2="42.3832" y2="5.49202" gradientUnits="userSpaceOnUse">
<stop stop-color="#22B4F8"/>
<stop offset="1" stop-color="#EDF3C2"/>
</linearGradient>
<linearGradient id="paint1_linear_880_4636" x1="8" y1="9.83077" x2="27.7788" y2="10.5629" gradientUnits="userSpaceOnUse">
<stop stop-color="#22B4F8"/>
<stop offset="1" stop-color="#EDF3C2"/>
</linearGradient>
<linearGradient id="paint2_linear_880_4636" x1="8" y1="9.83077" x2="27.7788" y2="10.5629" gradientUnits="userSpaceOnUse">
<stop stop-color="#22B4F8"/>
<stop offset="1" stop-color="#EDF3C2"/>
</linearGradient>
<linearGradient id="paint3_linear_880_4636" x1="8" y1="9.83077" x2="27.7788" y2="10.5629" gradientUnits="userSpaceOnUse">
<stop stop-color="#22B4F8"/>
<stop offset="1" stop-color="#EDF3C2"/>
</linearGradient>
</defs>
</svg>
