<svg width="24" height="24" viewBox="0 0 24 24" fill="none" xmlns="http://www.w3.org/2000/svg">
<path d="M23.1429 11.1429C20.4159 11.1397 17.8015 10.0551 15.8732 8.12681C13.9449 6.19854 12.8603 3.58413 12.8571 0.857143C12.8571 0.629814 12.7668 0.411797 12.6061 0.251051C12.4453 0.0903058 12.2273 0 12 0C11.7727 0 11.5547 0.0903058 11.3939 0.251051C11.2332 0.411797 11.1429 0.629814 11.1429 0.857143C11.1397 3.58413 10.0551 6.19854 8.12681 8.12681C6.19854 10.0551 3.58413 11.1397 0.857143 11.1429C0.629814 11.1429 0.411797 11.2332 0.251051 11.3939C0.0903058 11.5547 0 11.7727 0 12C0 12.2273 0.0903058 12.4453 0.251051 12.6061C0.411797 12.7668 0.629814 12.8571 0.857143 12.8571C3.58413 12.8603 6.19854 13.9449 8.12681 15.8732C10.0551 17.8015 11.1397 20.4159 11.1429 23.1429C11.1429 23.3702 11.2332 23.5882 11.3939 23.7489C11.5547 23.9097 11.7727 24 12 24C12.2273 24 12.4453 23.9097 12.6061 23.7489C12.7668 23.5882 12.8571 23.3702 12.8571 23.1429C12.8603 20.4159 13.9449 17.8015 15.8732 15.8732C17.8015 13.9449 20.4159 12.8603 23.1429 12.8571C23.3702 12.8571 23.5882 12.7668 23.7489 12.6061C23.9097 12.4453 24 12.2273 24 12C24 11.7727 23.9097 11.5547 23.7489 11.3939C23.5882 11.2332 23.3702 11.1429 23.1429 11.1429ZM12 18.7146C11.3939 17.199 10.4861 15.8223 9.33191 14.6681C8.17769 13.5139 6.80101 12.6061 5.2854 12C6.80101 11.3939 8.17769 10.4861 9.33191 9.33191C10.4861 8.17769 11.3939 6.80101 12 5.2854C12.6061 6.80101 13.5139 8.17769 14.6681 9.33191C15.8223 10.4861 17.199 11.3939 18.7146 12C17.199 12.6061 15.8223 13.5139 14.6681 14.6681C13.5139 15.8223 12.6061 17.199 12 18.7146Z" fill="#CCCCCC"/>
</svg>
