<svg width="25" height="24" viewBox="0 0 25 24" fill="none" xmlns="http://www.w3.org/2000/svg">
<path d="M3.54388 3.58893C1.86565 5.25837 0.722758 7.38537 0.259736 9.70096C-0.203287 12.0165 0.0343538 14.4167 0.942605 16.5979C1.85086 18.7792 3.38893 20.6435 5.36232 21.9552C7.33571 23.2669 9.65578 23.967 12.0292 23.967C14.4025 23.967 16.7226 23.2668 18.696 21.9552C20.6694 20.6435 22.2075 18.7792 23.1157 16.5979C24.024 14.4167 24.2616 12.0165 23.7986 9.70096C23.3356 7.38537 22.1927 5.25837 20.5144 3.58893C18.2623 1.35344 15.2107 0.0979582 12.0292 0.0979578C8.84761 0.0979575 5.796 1.35344 3.54388 3.58893V3.58893ZM15.5647 9.91957L13.4434 12.0298L15.5647 14.14C15.7522 14.3266 15.8576 14.5796 15.8576 14.8434C15.8576 15.1072 15.7522 15.3603 15.5647 15.5468C15.3772 15.7334 15.1228 15.8382 14.8576 15.8382C14.5924 15.8382 14.338 15.7334 14.1505 15.5468L12.0292 13.4366L9.90784 15.5468C9.7203 15.7334 9.46595 15.8382 9.20073 15.8382C8.93551 15.8382 8.68116 15.7334 8.49362 15.5468C8.30609 15.3603 8.20073 15.1072 8.20073 14.8434C8.20073 14.5796 8.30609 14.3265 8.49362 14.14L10.6149 12.0298L8.49362 9.91957C8.30609 9.73301 8.20073 9.47999 8.20073 9.21616C8.20073 8.95234 8.30609 8.69931 8.49362 8.51276C8.68116 8.3262 8.93551 8.2214 9.20073 8.2214C9.46595 8.2214 9.7203 8.3262 9.90784 8.51276L12.0292 10.623L14.1505 8.51276C14.338 8.3262 14.5924 8.2214 14.8576 8.2214C15.1228 8.2214 15.3772 8.3262 15.5647 8.51276C15.7522 8.69931 15.8576 8.95234 15.8576 9.21616C15.8576 9.47999 15.7522 9.73301 15.5647 9.91957Z" fill="#EB5757"/>
</svg>
