<svg
                width="115"
                height="19"
                viewBox="0 0 115 19"
                fill="none"
                xmlns="http://www.w3.org/2000/svg"
              >
                <path
                  d="M6.72051 0.120361H10.8292L16.9012 17.973H13.338L12.2835 14.7733H5.26612L4.21169 17.973H0.648438L6.72051 0.120361ZM11.3746 12.01L9.04753 5.17436L8.75665 4.04721L8.42942 5.17436L6.13876 12.01H11.3746Z"
                  fill="white"
                />
                <path
                  d="M23.9177 18.4823C19.0819 18.4823 16.1367 15.3553 16.1367 10.8467C16.1367 6.33812 19.1182 3.21118 23.9177 3.21118C26.2447 3.21118 28.4627 4.08382 29.808 5.72L27.4082 8.26518C26.4265 7.21075 25.3721 6.77443 23.9177 6.77443C21.8816 6.77443 20.0999 8.41062 20.0999 10.8467C20.0999 13.4646 21.7361 14.9554 23.9177 14.9554C25.1903 14.9554 26.681 14.4827 27.481 13.4646L29.7716 16.0825C28.4263 17.646 26.3902 18.4823 23.9177 18.4823Z"
                  fill="white"
                />
                <path
                  d="M37.9175 18.4823C33.0453 18.4823 30.3184 15.1372 30.3184 10.8467C30.3184 6.4472 33.009 3.21118 37.7357 3.21118C42.4625 3.21118 45.1531 6.41084 45.1531 10.8467C45.1531 11.3194 45.1531 11.6466 45.1168 12.083H34.2816C34.4997 13.9009 35.845 15.0281 37.8812 15.0281C39.3356 15.0281 40.7172 14.5554 41.5899 13.5737L43.8442 16.1552C42.7534 17.6096 40.1355 18.4823 37.9175 18.4823ZM41.0808 9.4287C40.899 7.79251 39.5537 6.70172 37.7357 6.70172C35.9178 6.70172 34.4997 7.79251 34.3543 9.4287H41.0808Z"
                  fill="white"
                />
                <path
                  d="M46.3164 17.973V4.44715C47.9162 3.53816 50.7887 3.17456 52.5703 3.17456C58.6787 3.17456 60.5694 6.22878 60.5694 9.64659C60.6058 12.5554 60.6058 15.0278 60.5694 17.9366H56.6062C56.6426 15.3187 56.6426 12.8826 56.6062 10.3011C56.5699 7.90132 55.37 6.88325 52.9702 6.88325C51.8431 6.88325 50.7523 7.06505 50.2796 7.35593V17.973H46.3164Z"
                  fill="white"
                />
                <path
                  d="M69.404 18.4823C64.5682 18.4823 61.623 15.3553 61.623 10.8467C61.623 6.33812 64.6045 3.21118 69.404 3.21118C71.731 3.21118 73.949 4.08382 75.2943 5.72L72.8946 8.26518C71.9128 7.21075 70.8584 6.77443 69.404 6.77443C67.3679 6.77443 65.5863 8.41062 65.5863 10.8467C65.5863 13.4646 67.2224 14.9554 69.404 14.9554C70.6766 14.9554 72.1674 14.4827 72.9673 13.4646L75.2579 16.0825C73.8763 17.646 71.8401 18.4823 69.404 18.4823Z"
                  fill="white"
                />
                <path
                  d="M83.404 3.21118C88.2035 3.21118 91.2214 6.33812 91.2214 10.8467C91.2214 15.3917 88.2762 18.4823 83.404 18.4823C78.5682 18.4823 75.623 15.3553 75.623 10.8467C75.623 6.33812 78.6045 3.21118 83.404 3.21118ZM79.5135 10.8467C79.5135 13.5737 81.3315 14.919 83.404 14.919C85.4765 14.919 87.2945 13.5737 87.2945 10.8467C87.2945 8.11974 85.3311 6.77443 83.404 6.77443C81.477 6.77443 79.5135 8.11974 79.5135 10.8467Z"
                  fill="white"
                />
                <path
                  d="M97.5836 6.81053C97.0382 6.81053 96.5655 6.84689 96.1292 7.02869V17.9366H92.166V4.22899C93.3659 3.61088 95.402 3.17456 97.4018 3.17456C98.2744 3.17456 99.8016 3.28364 100.711 3.61088L99.8743 7.17413C99.1107 6.91961 98.4199 6.81053 97.5836 6.81053Z"
                  fill="white"
                />
                <path
                  d="M107.765 18.4823C102.893 18.4823 100.166 15.1372 100.166 10.8467C100.166 6.4472 102.857 3.21118 107.583 3.21118C112.31 3.21118 115.001 6.41084 115.001 10.8467C115.001 11.3194 115.001 11.6466 114.964 12.083H104.129C104.347 13.9009 105.693 15.0281 107.729 15.0281C109.183 15.0281 110.565 14.5554 111.438 13.5737L113.692 16.1552C112.601 17.6096 109.983 18.4823 107.765 18.4823ZM110.928 9.4287C110.747 7.79251 109.401 6.70172 107.583 6.70172C105.765 6.70172 104.347 7.79251 104.202 9.4287H110.928Z"
                  fill="white"
                />
              </svg>