<svg width="40" height="40" viewBox="0 0 40 40" fill="none" xmlns="http://www.w3.org/2000/svg">
<rect width="40" height="40" rx="20" fill="white"/>
<rect x="1" y="1" width="38" height="38" rx="19" stroke="white" stroke-opacity="0.5" stroke-width="2"/>
<path d="M18.8323 11.2323L10.6285 14.6269C10.1723 14.8157 10.177 15.4637 10.6361 15.6457L18.8742 18.9126C19.5981 19.1996 20.4042 19.1996 21.128 18.9126L29.3662 15.6457C29.8252 15.4637 29.83 14.8157 29.3737 14.6269L21.17 11.2323C20.4215 10.9226 19.5807 10.9226 18.8323 11.2323Z" fill="#FFBF00"/>
<path d="M20.7266 20.6963V28.8575C20.7266 29.2457 21.118 29.5115 21.4788 29.3684L30.6586 25.8053C30.8682 25.7222 31.0056 25.5197 31.0056 25.2943V17.1332C31.0056 16.745 30.6142 16.4792 30.2534 16.6222L21.0736 20.1854C20.8641 20.2685 20.7266 20.471 20.7266 20.6963Z" fill="#26B5F8"/>
<path d="M18.5818 21.1177L15.8574 22.4332L15.5808 22.5669L9.82985 25.3224C9.4653 25.4983 9 25.2326 9 24.8277V17.1678C9 17.0212 9.07512 16.8948 9.17587 16.7995C9.21791 16.7573 9.26555 16.7226 9.31505 16.6951C9.45248 16.6127 9.6485 16.5907 9.81517 16.6566L18.536 20.1119C18.9793 20.2878 19.0141 20.9089 18.5818 21.1177Z" fill="#ED3049"/>
<path d="M18.5778 21.1177L15.8534 22.4332L9.17188 16.7995C9.21391 16.7573 9.26155 16.7226 9.31105 16.6951C9.44849 16.6127 9.64451 16.5907 9.81117 16.6566L18.532 20.1119C18.9753 20.2878 19.0101 20.9089 18.5778 21.1177Z" fill="black" fill-opacity="0.25"/>
</svg>
