<svg width="17" height="22" viewBox="0 0 17 22" fill="none" xmlns="http://www.w3.org/2000/svg">
<path d="M2.67788 0C1.68218 0 0.875 0.87944 0.875 1.96429V20.0357C0.875 21.1206 1.68218 22 2.67788 22H14.9375C15.9332 22 16.7404 21.1206 16.7404 20.0357V11.7857C16.7404 9.61602 15.126 7.85714 13.1346 7.85714H11.3317C10.336 7.85714 9.52884 6.9777 9.52884 5.89286V3.92857C9.52884 1.75888 7.91449 0 5.92308 0H2.67788Z" fill="#CCCCCC"/>
<path d="M9.74153 0.330948C10.5077 1.29536 10.9712 2.55299 10.9712 3.92857V5.89286C10.9712 6.10983 11.1326 6.28571 11.3317 6.28571H13.1346C14.3972 6.28571 15.5515 6.79071 16.4366 7.62542C15.5829 4.06463 13.0097 1.2611 9.74153 0.330948Z" fill="#CCCCCC"/>
</svg>
