<svg width="40" height="41" viewBox="0 0 40 41" fill="none" xmlns="http://www.w3.org/2000/svg">
<rect y="0.968262" width="40" height="40" rx="20" fill="#F4F4F4"/>
<g clip-path="url(#clip0_880_3901)">
<g clip-path="url(#clip1_880_3901)">
<path d="M15.7865 15.1338C15.7862 15.5758 15.6104 15.9997 15.2977 16.3121C14.985 16.6245 14.561 16.7999 14.119 16.7996C13.6769 16.7994 13.2531 16.6236 12.9407 16.3109C12.6283 15.9982 12.4529 15.5742 12.4531 15.1321C12.4533 14.6901 12.6291 14.2663 12.9419 13.9539C13.2546 13.6415 13.6786 13.4661 14.1206 13.4663C14.5626 13.4665 14.9865 13.6423 15.2989 13.9551C15.6113 14.2678 15.7867 14.6918 15.7865 15.1338ZM15.8365 18.0338H12.5031V28.4672H15.8365V18.0338ZM21.1031 18.0338H17.7865V28.4672H21.0698V22.9922C21.0698 19.9421 25.0448 19.6588 25.0448 22.9922V28.4672H28.3364V21.8588C28.3364 16.7171 22.4531 16.9088 21.0698 19.4338L21.1031 18.0338Z" fill="black"/>
</g>
</g>
<defs>
<clipPath id="clip0_880_3901">
<rect width="20" height="20" fill="white" transform="translate(10 10.9683)"/>
</clipPath>
<clipPath id="clip1_880_3901">
<rect width="20" height="20" fill="white" transform="translate(10 10.9683)"/>
</clipPath>
</defs>
</svg>
