<svg width="40" height="41" viewBox="0 0 40 41" fill="none" xmlns="http://www.w3.org/2000/svg">
<rect y="0.968262" width="40" height="40" rx="20" fill="#F4F4F4"/>
<path d="M29.5992 16.1653C29.4853 15.7427 29.2627 15.3573 28.9536 15.0475C28.6444 14.7376 28.2595 14.5141 27.8372 14.3993C26.2712 13.9693 20.0062 13.9623 20.0062 13.9623C20.0062 13.9623 13.7422 13.9553 12.1752 14.3663C11.7531 14.4864 11.369 14.7131 11.0598 15.0244C10.7505 15.3358 10.5265 15.7214 10.4092 16.1443C9.99619 17.7103 9.99219 20.9583 9.99219 20.9583C9.99219 20.9583 9.98819 24.2223 10.3982 25.7723C10.6282 26.6293 11.3032 27.3063 12.1612 27.5373C13.7432 27.9673 19.9912 27.9743 19.9912 27.9743C19.9912 27.9743 26.2562 27.9813 27.8222 27.5713C28.2447 27.4566 28.6299 27.2337 28.9398 26.9245C29.2497 26.6153 29.4736 26.2305 29.5892 25.8083C30.0032 24.2433 30.0062 20.9963 30.0062 20.9963C30.0062 20.9963 30.0262 17.7313 29.5992 16.1653ZM18.0022 23.9673L18.0072 17.9673L23.2142 20.9723L18.0022 23.9673Z" fill="black"/>
</svg>

