<svg width="40" height="41" viewBox="0 0 40 41" fill="none" xmlns="http://www.w3.org/2000/svg">
<rect y="0.968262" width="40" height="40" rx="20" fill="#F4F4F4"/>
<g clip-path="url(#clip0_880_3916)">
<g clip-path="url(#clip1_880_3916)">
<path d="M20.0052 12.6343C22.2694 12.6343 22.5519 12.6426 23.4402 12.6843C24.3277 12.7259 24.9319 12.8651 25.4636 13.0718C26.0136 13.2834 26.4769 13.5701 26.9402 14.0326C27.364 14.4492 27.6919 14.9531 27.9011 15.5093C28.1069 16.0401 28.2469 16.6451 28.2886 17.5326C28.3277 18.4209 28.3386 18.7034 28.3386 20.9676C28.3386 23.2318 28.3302 23.5143 28.2886 24.4026C28.2469 25.2901 28.1069 25.8943 27.9011 26.426C27.6925 26.9824 27.3645 27.4865 26.9402 27.9026C26.5235 28.3262 26.0197 28.6541 25.4636 28.8635C24.9327 29.0693 24.3277 29.2093 23.4402 29.251C22.5519 29.2901 22.2694 29.301 20.0052 29.301C17.741 29.301 17.4585 29.2926 16.5702 29.251C15.6827 29.2093 15.0785 29.0693 14.5469 28.8635C13.9905 28.6547 13.4865 28.3267 13.0702 27.9026C12.6464 27.4861 12.3185 26.9822 12.1094 26.426C11.9027 25.8951 11.7635 25.2901 11.7219 24.4026C11.6827 23.5143 11.6719 23.2318 11.6719 20.9676C11.6719 18.7034 11.6802 18.4209 11.7219 17.5326C11.7635 16.6443 11.9027 16.0409 12.1094 15.5093C12.3179 14.9528 12.6459 14.4487 13.0702 14.0326C13.4866 13.6086 13.9906 13.2807 14.5469 13.0718C15.0785 12.8651 15.6819 12.7259 16.5702 12.6843C17.4585 12.6451 17.741 12.6343 20.0052 12.6343ZM20.0052 16.8009C18.9001 16.8009 17.8403 17.2399 17.0589 18.0213C16.2775 18.8027 15.8385 19.8625 15.8385 20.9676C15.8385 22.0727 16.2775 23.1325 17.0589 23.9139C17.8403 24.6953 18.9001 25.1343 20.0052 25.1343C21.1103 25.1343 22.1701 24.6953 22.9515 23.9139C23.7329 23.1325 24.1719 22.0727 24.1719 20.9676C24.1719 19.8625 23.7329 18.8027 22.9515 18.0213C22.1701 17.2399 21.1103 16.8009 20.0052 16.8009ZM25.4219 16.5926C25.4219 16.3163 25.3121 16.0514 25.1168 15.856C24.9214 15.6607 24.6565 15.5509 24.3802 15.5509C24.104 15.5509 23.839 15.6607 23.6437 15.856C23.4483 16.0514 23.3386 16.3163 23.3386 16.5926C23.3386 16.8689 23.4483 17.1338 23.6437 17.3292C23.839 17.5245 24.104 17.6343 24.3802 17.6343C24.6565 17.6343 24.9214 17.5245 25.1168 17.3292C25.3121 17.1338 25.4219 16.8689 25.4219 16.5926ZM20.0052 18.4676C20.6683 18.4676 21.3042 18.731 21.773 19.1998C22.2418 19.6687 22.5052 20.3046 22.5052 20.9676C22.5052 21.6307 22.2418 22.2666 21.773 22.7354C21.3042 23.2042 20.6683 23.4676 20.0052 23.4676C19.3422 23.4676 18.7063 23.2042 18.2374 22.7354C17.7686 22.2666 17.5052 21.6307 17.5052 20.9676C17.5052 20.3046 17.7686 19.6687 18.2374 19.1998C18.7063 18.731 19.3422 18.4676 20.0052 18.4676Z" fill="black"/>
</g>
</g>
<defs>
<clipPath id="clip0_880_3916">
<rect width="20" height="20" fill="white" transform="translate(10 10.9683)"/>
</clipPath>
<clipPath id="clip1_880_3916">
<rect width="20" height="20" fill="white" transform="translate(10 10.9683)"/>
</clipPath>
</defs>
</svg>
