<svg width="23" height="22" viewBox="0 0 23 22" fill="none" xmlns="http://www.w3.org/2000/svg">
<path d="M22.0174 11.8504C22.0379 11.5698 22.0484 11.2862 22.0484 11C22.0484 9.27584 21.669 7.64408 20.9925 6.19055C19.6505 7.51898 18.0532 8.56961 16.2852 9.25409C16.3302 9.82986 16.3531 10.4121 16.3531 11C16.3531 12.2457 16.2501 13.4663 16.0526 14.6531C18.2149 14.0857 20.2278 13.1258 22.0174 11.8504Z" fill="#CCCCCC"/>
<path d="M14.3292 15.016C14.5892 13.7199 14.7259 12.3766 14.7259 11C14.7259 10.5833 14.7134 10.1696 14.6887 9.75937C13.6563 10.0158 12.5791 10.1516 11.4715 10.1516C10.3638 10.1516 9.28658 10.0158 8.25423 9.75937C8.22954 10.1696 8.21702 10.5833 8.21702 11C8.21702 12.3766 8.35372 13.7199 8.61373 15.016C9.54545 15.1648 10.4998 15.2421 11.4715 15.2421C12.4431 15.2421 13.3975 15.1648 14.3292 15.016Z" fill="#CCCCCC"/>
<path d="M9.05475 16.7907C9.84725 16.8886 10.6537 16.9389 11.4715 16.9389C12.2892 16.9389 13.0957 16.8886 13.8882 16.7907C13.3308 18.6636 12.5102 20.4157 11.4715 22C10.4327 20.4157 9.61211 18.6636 9.05475 16.7907Z" fill="#CCCCCC"/>
<path d="M6.89035 14.6531C6.69278 13.4663 6.5898 12.2457 6.5898 11C6.5898 10.4121 6.61273 9.82986 6.65772 9.25409C4.88974 8.56961 3.29239 7.51898 1.95041 6.19054C1.27393 7.64408 0.894531 9.27584 0.894531 11C0.894531 11.2862 0.904984 11.5698 0.925508 11.8504C2.71512 13.1258 4.72797 14.0857 6.89035 14.6531Z" fill="#CCCCCC"/>
<path d="M21.621 14.1137C20.5192 18.0254 17.3942 21.0346 13.5083 21.825C14.4482 20.1768 15.1799 18.3845 15.6658 16.4874C17.7919 16.0227 19.7958 15.2117 21.621 14.1137Z" fill="#CCCCCC"/>
<path d="M1.32189 14.1137C3.14706 15.2117 5.15103 16.0227 7.27709 16.4874C7.76298 18.3845 8.49475 20.1768 9.43464 21.825C5.54867 21.0346 2.42372 18.0254 1.32189 14.1137Z" fill="#CCCCCC"/>
<path d="M13.5083 0.174971C16.2437 0.731411 18.602 2.38723 20.1431 4.68336C18.9948 5.89246 17.6155 6.86267 16.0801 7.51612C15.6611 4.87208 14.7731 2.39302 13.5083 0.174971Z" fill="#CCCCCC"/>
<path d="M11.4715 0C13.0213 2.36379 14.0855 5.10121 14.5143 8.05602C13.5416 8.31634 12.522 8.45476 11.4715 8.45476C10.4209 8.45476 9.4013 8.31634 8.42859 8.05602C8.85738 5.10121 9.92161 2.36378 11.4715 0Z" fill="#CCCCCC"/>
<path d="M9.43464 0.174969C8.16981 2.39302 7.28186 4.87208 6.86286 7.51612C5.32739 6.86267 3.94816 5.89246 2.79984 4.68336C4.34086 2.38723 6.6992 0.731408 9.43464 0.174969Z" fill="#CCCCCC"/>
</svg>
