<svg width="41" height="40" viewBox="0 0 41 40" fill="none" xmlns="http://www.w3.org/2000/svg">
<rect x="0.833984" width="40" height="40" rx="20" fill="white"/>
<rect x="1.83398" y="1" width="38" height="38" rx="19" stroke="white" stroke-opacity="0.5" stroke-width="2"/>
<path d="M30.2626 9H11.4005C10.5362 9 9.83398 9.71205 9.83398 10.5862V29.4138C9.83398 30.2879 10.5362 31 11.4005 31H30.2626C31.1268 31 31.834 30.2879 31.834 29.4138V10.5862C31.834 9.71205 31.1268 9 30.2626 9ZM16.4831 27.8571H13.2224V17.358H16.488V27.8571H16.4831ZM14.8527 15.9241C13.8068 15.9241 12.9621 15.0746 12.9621 14.0335C12.9621 12.9924 13.8068 12.1429 14.8527 12.1429C15.8938 12.1429 16.7434 12.9924 16.7434 14.0335C16.7434 15.0795 15.8987 15.9241 14.8527 15.9241ZM28.7059 27.8571H25.4451V22.75C25.4451 21.5321 25.4206 19.9656 23.7509 19.9656C22.0518 19.9656 21.7916 21.2915 21.7916 22.6616V27.8571H18.5309V17.358H21.659V18.792H21.7032C22.1402 17.967 23.2059 17.0978 24.792 17.0978C28.092 17.0978 28.7059 19.2732 28.7059 22.1018V27.8571Z" fill="#2867B2"/>
</svg>
