<svg width="22" height="22" viewBox="0 0 22 22" fill="none" xmlns="http://www.w3.org/2000/svg">
<path d="M20.3831 0H2.2465C1.41546 0 0.740234 0.712054 0.740234 1.58616V20.4138C0.740234 21.2879 1.41546 22 2.2465 22H20.3831C21.2141 22 21.8941 21.2879 21.8941 20.4138V1.58616C21.8941 0.712054 21.2141 0 20.3831 0ZM7.13361 18.8571H3.9983V8.35804H7.13833V18.8571H7.13361ZM5.56596 6.92411C4.5602 6.92411 3.74805 6.07455 3.74805 5.03348C3.74805 3.99241 4.5602 3.14286 5.56596 3.14286C6.56699 3.14286 7.38386 3.99241 7.38386 5.03348C7.38386 6.07946 6.57171 6.92411 5.56596 6.92411ZM18.8863 18.8571H15.751V13.75C15.751 12.5321 15.7274 10.9656 14.1219 10.9656C12.4882 10.9656 12.2379 12.2915 12.2379 13.6616V18.8571H9.10261V8.35804H12.1104V9.79196H12.1529C12.5732 8.96696 13.5978 8.09777 15.123 8.09777C18.296 8.09777 18.8863 10.2732 18.8863 13.1018V18.8571Z" fill="#CCCCCC"/>
</svg>
