<svg width="62" height="15" viewBox="0 0 62 15" fill="none" xmlns="http://www.w3.org/2000/svg">
<rect width="62" height="15" rx="7.5" fill="url(#paint0_linear_897_4080)"/>
<path d="M11.1719 7.5V7.8125C11.1719 8.24219 11.1159 8.6276 11.0039 8.96875C10.8919 9.3099 10.7318 9.60026 10.5234 9.83984C10.3177 10.0794 10.0703 10.263 9.78125 10.3906C9.49219 10.5156 9.17188 10.5781 8.82031 10.5781C8.47135 10.5781 8.15234 10.5156 7.86328 10.3906C7.57682 10.263 7.32812 10.0794 7.11719 9.83984C6.90625 9.60026 6.74219 9.3099 6.625 8.96875C6.51042 8.6276 6.45312 8.24219 6.45312 7.8125V7.5C6.45312 7.07031 6.51042 6.6862 6.625 6.34766C6.73958 6.00651 6.90104 5.71615 7.10938 5.47656C7.32031 5.23438 7.56901 5.05078 7.85547 4.92578C8.14453 4.79818 8.46354 4.73438 8.8125 4.73438C9.16406 4.73438 9.48438 4.79818 9.77344 4.92578C10.0625 5.05078 10.3112 5.23438 10.5195 5.47656C10.7279 5.71615 10.888 6.00651 11 6.34766C11.1146 6.6862 11.1719 7.07031 11.1719 7.5ZM10.1914 7.8125V7.49219C10.1914 7.17448 10.1602 6.89453 10.0977 6.65234C10.0378 6.40755 9.94792 6.20312 9.82812 6.03906C9.71094 5.8724 9.56641 5.7474 9.39453 5.66406C9.22266 5.57812 9.02865 5.53516 8.8125 5.53516C8.59635 5.53516 8.40365 5.57812 8.23438 5.66406C8.0651 5.7474 7.92057 5.8724 7.80078 6.03906C7.68359 6.20312 7.59375 6.40755 7.53125 6.65234C7.46875 6.89453 7.4375 7.17448 7.4375 7.49219V7.8125C7.4375 8.13021 7.46875 8.41146 7.53125 8.65625C7.59375 8.90104 7.6849 9.10807 7.80469 9.27734C7.92708 9.44401 8.07292 9.57031 8.24219 9.65625C8.41146 9.73958 8.60417 9.78125 8.82031 9.78125C9.03906 9.78125 9.23307 9.73958 9.40234 9.65625C9.57161 9.57031 9.71484 9.44401 9.83203 9.27734C9.94922 9.10807 10.0378 8.90104 10.0977 8.65625C10.1602 8.41146 10.1914 8.13021 10.1914 7.8125ZM13.0039 7.08594V12.125H12.0625V6.27344H12.9297L13.0039 7.08594ZM15.7578 8.34766V8.42969C15.7578 8.73698 15.7214 9.02214 15.6484 9.28516C15.5781 9.54557 15.4727 9.77344 15.332 9.96875C15.194 10.1615 15.0234 10.3112 14.8203 10.418C14.6172 10.5247 14.3828 10.5781 14.1172 10.5781C13.8542 10.5781 13.6237 10.5299 13.4258 10.4336C13.2305 10.3346 13.0651 10.1953 12.9297 10.0156C12.7943 9.83594 12.6849 9.625 12.6016 9.38281C12.5208 9.13802 12.4635 8.86979 12.4297 8.57812V8.26172C12.4635 7.95182 12.5208 7.67057 12.6016 7.41797C12.6849 7.16536 12.7943 6.94792 12.9297 6.76562C13.0651 6.58333 13.2305 6.44271 13.4258 6.34375C13.6211 6.24479 13.849 6.19531 14.1094 6.19531C14.375 6.19531 14.6107 6.2474 14.8164 6.35156C15.0221 6.45312 15.1953 6.59896 15.3359 6.78906C15.4766 6.97656 15.582 7.20312 15.6523 7.46875C15.7227 7.73177 15.7578 8.02474 15.7578 8.34766ZM14.8164 8.42969V8.34766C14.8164 8.15234 14.7982 7.97135 14.7617 7.80469C14.7253 7.63542 14.668 7.48698 14.5898 7.35938C14.5117 7.23177 14.4115 7.13281 14.2891 7.0625C14.1693 6.98958 14.0247 6.95312 13.8555 6.95312C13.6888 6.95312 13.5456 6.98177 13.4258 7.03906C13.306 7.09375 13.2057 7.17057 13.125 7.26953C13.0443 7.36849 12.9818 7.48438 12.9375 7.61719C12.8932 7.7474 12.862 7.88932 12.8438 8.04297V8.80078C12.875 8.98828 12.9284 9.16016 13.0039 9.31641C13.0794 9.47266 13.1862 9.59766 13.3242 9.69141C13.4648 9.78255 13.6445 9.82812 13.8633 9.82812C14.0326 9.82812 14.1771 9.79167 14.2969 9.71875C14.4167 9.64583 14.5143 9.54557 14.5898 9.41797C14.668 9.28776 14.7253 9.13802 14.7617 8.96875C14.7982 8.79948 14.8164 8.61979 14.8164 8.42969ZM18.4219 10.5781C18.1094 10.5781 17.8268 10.5273 17.5742 10.4258C17.3242 10.3216 17.1107 10.1771 16.9336 9.99219C16.7591 9.80729 16.625 9.58984 16.5312 9.33984C16.4375 9.08984 16.3906 8.82031 16.3906 8.53125V8.375C16.3906 8.04427 16.4388 7.74479 16.5352 7.47656C16.6315 7.20833 16.7656 6.97917 16.9375 6.78906C17.1094 6.59635 17.3125 6.44922 17.5469 6.34766C17.7812 6.24609 18.0352 6.19531 18.3086 6.19531C18.6107 6.19531 18.875 6.24609 19.1016 6.34766C19.3281 6.44922 19.5156 6.59245 19.6641 6.77734C19.8151 6.95964 19.9271 7.17708 20 7.42969C20.0755 7.68229 20.1133 7.96094 20.1133 8.26562V8.66797H16.8477V7.99219H19.1836V7.91797C19.1784 7.7487 19.1445 7.58984 19.082 7.44141C19.0221 7.29297 18.9297 7.17318 18.8047 7.08203C18.6797 6.99089 18.513 6.94531 18.3047 6.94531C18.1484 6.94531 18.0091 6.97917 17.8867 7.04688C17.7669 7.11198 17.6667 7.20703 17.5859 7.33203C17.5052 7.45703 17.4427 7.60807 17.3984 7.78516C17.3568 7.95964 17.3359 8.15625 17.3359 8.375V8.53125C17.3359 8.71615 17.3607 8.88802 17.4102 9.04688C17.4622 9.20312 17.5378 9.33984 17.6367 9.45703C17.7357 9.57422 17.8555 9.66667 17.9961 9.73438C18.1367 9.79948 18.2969 9.83203 18.4766 9.83203C18.7031 9.83203 18.9049 9.78646 19.082 9.69531C19.2591 9.60417 19.4128 9.47526 19.543 9.30859L20.0391 9.78906C19.9479 9.92188 19.8294 10.0495 19.6836 10.1719C19.5378 10.2917 19.3594 10.3893 19.1484 10.4648C18.9401 10.5404 18.6979 10.5781 18.4219 10.5781ZM21.7812 7.17578V10.5H20.8398V6.27344H21.7266L21.7812 7.17578ZM21.6133 8.23047L21.3086 8.22656C21.3112 7.92708 21.3529 7.65234 21.4336 7.40234C21.5169 7.15234 21.6315 6.9375 21.7773 6.75781C21.9258 6.57812 22.1029 6.4401 22.3086 6.34375C22.5143 6.24479 22.7435 6.19531 22.9961 6.19531C23.1992 6.19531 23.3828 6.22396 23.5469 6.28125C23.7135 6.33594 23.8555 6.42578 23.9727 6.55078C24.0924 6.67578 24.1836 6.83854 24.2461 7.03906C24.3086 7.23698 24.3398 7.48047 24.3398 7.76953V10.5H23.3945V7.76562C23.3945 7.5625 23.3646 7.40234 23.3047 7.28516C23.2474 7.16536 23.1628 7.08073 23.0508 7.03125C22.9414 6.97917 22.8047 6.95312 22.6406 6.95312C22.4792 6.95312 22.3346 6.98698 22.207 7.05469C22.0794 7.1224 21.9714 7.21484 21.8828 7.33203C21.7969 7.44922 21.7305 7.58464 21.6836 7.73828C21.6367 7.89193 21.6133 8.05599 21.6133 8.23047ZM29.5391 4.8125V10.5H28.5664V4.8125H29.5391ZM31.3242 4.8125V5.59375H26.7969V4.8125H31.3242ZM31.2539 8.43359V8.34375C31.2539 8.03906 31.2982 7.75651 31.3867 7.49609C31.4753 7.23307 31.6029 7.00521 31.7695 6.8125C31.9388 6.61719 32.1445 6.46615 32.3867 6.35938C32.6315 6.25 32.9076 6.19531 33.2148 6.19531C33.5247 6.19531 33.8008 6.25 34.043 6.35938C34.2878 6.46615 34.4948 6.61719 34.6641 6.8125C34.8333 7.00521 34.9622 7.23307 35.0508 7.49609C35.1393 7.75651 35.1836 8.03906 35.1836 8.34375V8.43359C35.1836 8.73828 35.1393 9.02083 35.0508 9.28125C34.9622 9.54167 34.8333 9.76953 34.6641 9.96484C34.4948 10.1576 34.2891 10.3086 34.0469 10.418C33.8047 10.5247 33.5299 10.5781 33.2227 10.5781C32.9128 10.5781 32.6354 10.5247 32.3906 10.418C32.1484 10.3086 31.9427 10.1576 31.7734 9.96484C31.6042 9.76953 31.4753 9.54167 31.3867 9.28125C31.2982 9.02083 31.2539 8.73828 31.2539 8.43359ZM32.1953 8.34375V8.43359C32.1953 8.6237 32.2148 8.80339 32.2539 8.97266C32.293 9.14193 32.3542 9.29036 32.4375 9.41797C32.5208 9.54557 32.6276 9.64583 32.7578 9.71875C32.888 9.79167 33.043 9.82812 33.2227 9.82812C33.3971 9.82812 33.5482 9.79167 33.6758 9.71875C33.806 9.64583 33.9128 9.54557 33.9961 9.41797C34.0794 9.29036 34.1406 9.14193 34.1797 8.97266C34.2214 8.80339 34.2422 8.6237 34.2422 8.43359V8.34375C34.2422 8.15625 34.2214 7.97917 34.1797 7.8125C34.1406 7.64323 34.0781 7.49349 33.9922 7.36328C33.9089 7.23307 33.8021 7.13151 33.6719 7.05859C33.5443 6.98307 33.3919 6.94531 33.2148 6.94531C33.0378 6.94531 32.8841 6.98307 32.7539 7.05859C32.6263 7.13151 32.5208 7.23307 32.4375 7.36328C32.3542 7.49349 32.293 7.64323 32.2539 7.8125C32.2148 7.97917 32.1953 8.15625 32.1953 8.34375ZM39.4844 9.22266L40.6172 4.8125H41.2109L41.1445 5.94922L39.9336 10.5H39.3164L39.4844 9.22266ZM38.6367 4.8125L39.5547 9.1875L39.6367 10.5H38.9805L37.6641 4.8125H38.6367ZM42.4961 9.17578L43.4023 4.8125H44.3789L43.0625 10.5H42.4062L42.4961 9.17578ZM41.4414 4.8125L42.5625 9.23438L42.7266 10.5H42.1094L40.918 5.94922L40.8555 4.8125H41.4414ZM44.707 8.43359V8.34375C44.707 8.03906 44.7513 7.75651 44.8398 7.49609C44.9284 7.23307 45.056 7.00521 45.2227 6.8125C45.3919 6.61719 45.5977 6.46615 45.8398 6.35938C46.0846 6.25 46.3607 6.19531 46.668 6.19531C46.9779 6.19531 47.2539 6.25 47.4961 6.35938C47.7409 6.46615 47.9479 6.61719 48.1172 6.8125C48.2865 7.00521 48.4154 7.23307 48.5039 7.49609C48.5924 7.75651 48.6367 8.03906 48.6367 8.34375V8.43359C48.6367 8.73828 48.5924 9.02083 48.5039 9.28125C48.4154 9.54167 48.2865 9.76953 48.1172 9.96484C47.9479 10.1576 47.7422 10.3086 47.5 10.418C47.2578 10.5247 46.9831 10.5781 46.6758 10.5781C46.3659 10.5781 46.0885 10.5247 45.8438 10.418C45.6016 10.3086 45.3958 10.1576 45.2266 9.96484C45.0573 9.76953 44.9284 9.54167 44.8398 9.28125C44.7513 9.02083 44.707 8.73828 44.707 8.43359ZM45.6484 8.34375V8.43359C45.6484 8.6237 45.668 8.80339 45.707 8.97266C45.7461 9.14193 45.8073 9.29036 45.8906 9.41797C45.974 9.54557 46.0807 9.64583 46.2109 9.71875C46.3411 9.79167 46.4961 9.82812 46.6758 9.82812C46.8503 9.82812 47.0013 9.79167 47.1289 9.71875C47.2591 9.64583 47.3659 9.54557 47.4492 9.41797C47.5326 9.29036 47.5938 9.14193 47.6328 8.97266C47.6745 8.80339 47.6953 8.6237 47.6953 8.43359V8.34375C47.6953 8.15625 47.6745 7.97917 47.6328 7.8125C47.5938 7.64323 47.5312 7.49349 47.4453 7.36328C47.362 7.23307 47.2552 7.13151 47.125 7.05859C46.9974 6.98307 46.8451 6.94531 46.668 6.94531C46.4909 6.94531 46.3372 6.98307 46.207 7.05859C46.0794 7.13151 45.974 7.23307 45.8906 7.36328C45.8073 7.49349 45.7461 7.64323 45.707 7.8125C45.668 7.97917 45.6484 8.15625 45.6484 8.34375ZM50.3711 7.07812V10.5H49.4297V6.27344H50.3281L50.3711 7.07812ZM51.6641 6.24609L51.6562 7.12109C51.599 7.11068 51.5365 7.10286 51.4688 7.09766C51.4036 7.09245 51.3385 7.08984 51.2734 7.08984C51.112 7.08984 50.9701 7.11328 50.8477 7.16016C50.7253 7.20443 50.6224 7.26953 50.5391 7.35547C50.4583 7.4388 50.3958 7.54036 50.3516 7.66016C50.3073 7.77995 50.2812 7.91406 50.2734 8.0625L50.0586 8.07812C50.0586 7.8125 50.0846 7.56641 50.1367 7.33984C50.1888 7.11328 50.2669 6.91406 50.3711 6.74219C50.4779 6.57031 50.6107 6.4362 50.7695 6.33984C50.931 6.24349 51.1172 6.19531 51.3281 6.19531C51.3854 6.19531 51.4466 6.20052 51.5117 6.21094C51.5794 6.22135 51.6302 6.23307 51.6641 6.24609ZM53.2031 4.5V10.5H52.2578V4.5H53.2031ZM55.8281 6.27344L53.9883 8.3125L52.9805 9.34375L52.7344 8.54688L53.4961 7.60547L54.6914 6.27344H55.8281ZM54.8945 10.5L53.5234 8.51562L54.1172 7.85547L55.9844 10.5H54.8945Z" fill="black"/>
<defs>
<linearGradient id="paint0_linear_897_4080" x1="1.73904e-08" y1="1.96154" x2="85.7056" y2="15.0751" gradientUnits="userSpaceOnUse">
<stop stop-color="#22B4F8"/>
<stop offset="1" stop-color="#EDF3C2"/>
</linearGradient>
</defs>
</svg>
