<svg width="18" height="22" viewBox="0 0 18 22" fill="none" xmlns="http://www.w3.org/2000/svg">
<path fill-rule="evenodd" clip-rule="evenodd" d="M9.45117 0V5.69893L9.45116 5.75333V5.75334V5.75336V5.75337C9.45108 6.17743 9.451 6.58954 9.4967 6.92944C9.54822 7.31265 9.67374 7.74992 10.037 8.11314C10.4002 8.47635 10.8375 8.60188 11.2207 8.6534C11.5606 8.6991 11.9727 8.69902 12.3967 8.69893H12.3967H12.3967H12.3968L12.4512 8.69893H17.8743V15.4C17.8743 18.5113 17.8743 20.0669 16.9449 21.0335C16.0155 22 14.5197 22 11.5281 22H7.29733C4.30572 22 2.80992 22 1.88054 21.0335C0.951172 20.0669 0.951172 18.5113 0.951172 15.4V6.6C0.951172 3.48873 0.951172 1.9331 1.88054 0.966548C2.80992 0 4.30572 0 7.29733 0H9.45117ZM11.4512 0.0033774V5.69893C11.4512 6.1986 11.4533 6.47276 11.4789 6.66295L11.4799 6.67023L11.4871 6.67123C11.6773 6.6968 11.9515 6.69893 12.4512 6.69893H17.8713C17.8631 6.1899 17.8319 5.86732 17.7132 5.56937C17.5522 5.16507 17.2465 4.84714 16.6351 4.21127L13.825 1.28873C13.2135 0.652863 12.9078 0.33493 12.5191 0.167465C12.2362 0.0455838 11.9301 0.0124078 11.4512 0.0033774ZM5.24805 12.1011C5.24805 11.5488 5.69576 11.1011 6.24805 11.1011L12.5942 11.1011C13.1465 11.1011 13.5942 11.5488 13.5942 12.1011C13.5942 12.6534 13.1465 13.1011 12.5942 13.1011L6.24805 13.1011C5.69576 13.1011 5.24805 12.6534 5.24805 12.1011ZM6.24805 15.5C5.69576 15.5 5.24805 15.9477 5.24805 16.5C5.24805 17.0523 5.69576 17.5 6.24805 17.5H10.4788C11.0311 17.5 11.4788 17.0523 11.4788 16.5C11.4788 15.9477 11.0311 15.5 10.4788 15.5H6.24805Z" fill="#CCCCCC"/>
</svg>
